<?xml version="1.0" encoding="UTF-8" standalone="no"?>
<!-- Created with Inkscape (http://www.inkscape.org/) -->

<svg
   xmlns:dc="http://purl.org/dc/elements/1.1/"
   xmlns:cc="http://creativecommons.org/ns#"
   xmlns:rdf="http://www.w3.org/1999/02/22-rdf-syntax-ns#"
   xmlns:svg="http://www.w3.org/2000/svg"
   xmlns="http://www.w3.org/2000/svg"
   xmlns:xlink="http://www.w3.org/1999/xlink"
   xmlns:sodipodi="http://sodipodi.sourceforge.net/DTD/sodipodi-0.dtd"
   xmlns:inkscape="http://www.inkscape.org/namespaces/inkscape"
   width="32"
   height="32"
   id="svg2"
   version="1.1"
   inkscape:version="0.47 r22583"
   inkscape:export-filename="/Users/dennis/Desktop/DimensionWarning@2x.png"
   inkscape:export-xdpi="180"
   inkscape:export-ydpi="180"
   sodipodi:docname="OrientationWarning.svg">
  <defs
     id="defs4">
    <inkscape:perspective
       sodipodi:type="inkscape:persp3d"
       inkscape:vp_x="0 : 526.18109 : 1"
       inkscape:vp_y="0 : 1000 : 0"
       inkscape:vp_z="744.09448 : 526.18109 : 1"
       inkscape:persp3d-origin="372.04724 : 350.78739 : 1"
       id="perspective10" />
    <inkscape:perspective
       id="perspective3662"
       inkscape:persp3d-origin="0.5 : 0.33333333 : 1"
       inkscape:vp_z="1 : 0.5 : 1"
       inkscape:vp_y="0 : 1000 : 0"
       inkscape:vp_x="0 : 0.5 : 1"
       sodipodi:type="inkscape:persp3d" />
    <inkscape:perspective
       id="perspective3733"
       inkscape:persp3d-origin="0.5 : 0.33333333 : 1"
       inkscape:vp_z="1 : 0.5 : 1"
       inkscape:vp_y="0 : 1000 : 0"
       inkscape:vp_x="0 : 0.5 : 1"
       sodipodi:type="inkscape:persp3d" />
    <inkscape:perspective
       id="perspective3762"
       inkscape:persp3d-origin="0.5 : 0.33333333 : 1"
       inkscape:vp_z="1 : 0.5 : 1"
       inkscape:vp_y="0 : 1000 : 0"
       inkscape:vp_x="0 : 0.5 : 1"
       sodipodi:type="inkscape:persp3d" />
    <inkscape:perspective
       id="perspective3776"
       inkscape:persp3d-origin="0.5 : 0.33333333 : 1"
       inkscape:vp_z="1 : 0.5 : 1"
       inkscape:vp_y="0 : 1000 : 0"
       inkscape:vp_x="0 : 0.5 : 1"
       sodipodi:type="inkscape:persp3d" />
    <inkscape:perspective
       id="perspective3803"
       inkscape:persp3d-origin="0.5 : 0.33333333 : 1"
       inkscape:vp_z="1 : 0.5 : 1"
       inkscape:vp_y="0 : 1000 : 0"
       inkscape:vp_x="0 : 0.5 : 1"
       sodipodi:type="inkscape:persp3d" />
    <inkscape:perspective
       id="perspective3763"
       inkscape:persp3d-origin="0.5 : 0.33333333 : 1"
       inkscape:vp_z="1 : 0.5 : 1"
       inkscape:vp_y="0 : 1000 : 0"
       inkscape:vp_x="0 : 0.5 : 1"
       sodipodi:type="inkscape:persp3d" />
    <inkscape:perspective
       id="perspective3790"
       inkscape:persp3d-origin="0.5 : 0.33333333 : 1"
       inkscape:vp_z="1 : 0.5 : 1"
       inkscape:vp_y="0 : 1000 : 0"
       inkscape:vp_x="0 : 0.5 : 1"
       sodipodi:type="inkscape:persp3d" />
    <radialGradient
       gradientTransform="matrix(1.0013948,6.954553e-3,-6.9543589e-3,1.0013669,74.965876,-274.9674)"
       gradientUnits="userSpaceOnUse"
       xlink:href="#linearGradient4496"
       id="radialGradient4511"
       fy="17999.996"
       fx="17999.998"
       r="17999.998"
       cy="17999.996"
       cx="17999.998" />
    <radialGradient
       gradientTransform="translate(0,-5.0249996e-3)"
       gradientUnits="userSpaceOnUse"
       xlink:href="#linearGradient4496"
       id="radialGradient4502"
       fy="17999.996"
       fx="17999.998"
       r="17999.998"
       cy="17999.996"
       cx="17999.998" />
    <radialGradient
       gradientTransform="matrix(1.143664,0,0,1.277345,-2575.195,-4834.423)"
       gradientUnits="userSpaceOnUse"
       xlink:href="#lineargrad1"
       id="radialGradient137289"
       fy="19313.244"
       fx="17925.152"
       r="13293.86"
       cy="19313.244"
       cx="17925.152" />
    <radialGradient
       gradientTransform="matrix(1,0,0,1.056352,0,-986.5546)"
       gradientUnits="userSpaceOnUse"
       xlink:href="#linearGradient127074"
       id="radialGradient136374"
       fy="17506.945"
       fx="19016.488"
       r="16567.549"
       cy="17506.945"
       cx="19016.488" />
    <radialGradient
       gradientTransform="matrix(1,0,0,1.002789,0,-50.55788)"
       gradientUnits="userSpaceOnUse"
       xlink:href="#linearGradient127074"
       id="radialGradient127080"
       fy="18125"
       fx="18025"
       r="17925"
       cy="18125"
       cx="18025" />
    <linearGradient
       id="linearGradient127074">
      <stop
         id="stop127076"
         offset="0"
         style="stop-color:#0101ff;stop-opacity:1" />
      <stop
         id="stop127078"
         offset="1"
         style="stop-color:#000080;stop-opacity:1" />
    </linearGradient>
    <linearGradient
       id="linearGradient4496">
      <stop
         id="stop4498"
         offset="0"
         style="stop-color:#000000;stop-opacity:0" />
      <stop
         id="stop4500"
         offset="1"
         style="stop-color:#000000;stop-opacity:0.49803922" />
    </linearGradient>
    <inkscape:perspective
       id="perspective3734"
       inkscape:persp3d-origin="900 : 600 : 1"
       inkscape:vp_z="1800 : 900 : 1"
       inkscape:vp_y="0 : 1000 : 0"
       inkscape:vp_x="0 : 900 : 1"
       sodipodi:type="inkscape:persp3d" />
  </defs>
  <sodipodi:namedview
     id="base"
     pagecolor="#ffffff"
     bordercolor="#666666"
     borderopacity="1.0"
     inkscape:pageopacity="0.0"
     inkscape:pageshadow="2"
     inkscape:zoom="21.78125"
     inkscape:cx="15.161473"
     inkscape:cy="15.018933"
     inkscape:document-units="px"
     inkscape:current-layer="layer1"
     showgrid="true"
     inkscape:window-width="1680"
     inkscape:window-height="945"
     inkscape:window-x="1747"
     inkscape:window-y="701"
     inkscape:window-maximized="0"
     gridtolerance="10">
    <inkscape:grid
       type="xygrid"
       id="grid2816"
       empspacing="10"
       visible="true"
       enabled="true"
       snapvisiblegridlinesonly="true"
       dotted="true" />
  </sodipodi:namedview>
  <metadata
     id="metadata7">
    <rdf:RDF>
      <cc:Work
         rdf:about="">
        <dc:format>image/svg+xml</dc:format>
        <dc:type
           rdf:resource="http://purl.org/dc/dcmitype/StillImage" />
        <dc:title></dc:title>
      </cc:Work>
    </rdf:RDF>
  </metadata>
  <g
     inkscape:label="Layer 1"
     inkscape:groupmode="layer"
     id="layer1"
     transform="translate(0,-1020.3622)">
    <path
       sodipodi:type="arc"
       style="fill:#000000;fill-opacity:0.50207472;fill-rule:evenodd;stroke:none"
       id="path2818"
       sodipodi:cx="10"
       sodipodi:cy="10"
       sodipodi:rx="10"
       sodipodi:ry="10"
       d="M 20,10 C 20,15.522847 15.522847,20 10,20 4.4771525,20 0,15.522847 0,10 0,4.4771525 4.4771525,0 10,0 15.522847,0 20,4.4771525 20,10 z"
       transform="matrix(1.6,0,0,1.6,0,1020.3622)" />
    <image
       y="1033.8622"
       x="1.5"
       id="image3735"
       height="17"
       width="17"
       xlink:href="file:///Users/dennis/Desktop/UIKit%20Artwork%20Extractor-3.1.3/UIButtonBarLocateSmall.png"
       style="display:none" />
    <path
       sodipodi:type="arc"
       style="fill:none;stroke:#ff0000;stroke-width:1.06157434;stroke-miterlimit:4;stroke-opacity:1;stroke-dasharray:none"
       id="path3992"
       sodipodi:cx="15.563845"
       sodipodi:cy="15.426112"
       sodipodi:rx="10.608703"
       sodipodi:ry="10.622788"
       d="m 26.172547,15.426112 a 10.608703,10.622788 0 1 1 -21.217405,0 10.608703,10.622788 0 1 1 21.217405,0 z"
       transform="matrix(0.89773555,0,0,0.89654516,2.0277833,1022.532)" />
    <g
       id="g3985"
       transform="matrix(5.5551963e-4,0,0,5.5551297e-4,7.0305323,1026.1088)"
       style="fill:#ff0000">
      <g
         transform="translate(-3304.5069,-14348.517)"
         id="layer1-7"
         style="fill:#ff0000;fill-opacity:1;display:inline">
        <path
           id="polygon0"
           style="fill:#ff0000;fill-opacity:1;stroke:none"
           d="m 15417.739,16820.654 501.633,-113.986 234.914,-121.812 299.743,-69.993 -41.639,-55.762 -182.139,-6.967 27.759,-45.997 277.901,-41.035 124.934,27.721 49.992,-55.706 477.167,-114.252 70.645,-79.132 395.45,114.546 310.76,-38.567 317.019,-84.04 415.463,52.031 -107.72,40.162 180.663,29.753 117.735,-12.208 146.496,-100.423 4.901,81.599 -58.111,-42.091 -76.987,59.875 254.77,-24.297 -245.451,29.062 569.31,36.813 -40.019,-34.767 206.277,-39.919 -103.141,2.681 86.799,-39.47 -79.308,-59.508 198.916,17.9 30.274,-53.093 176.108,66.445 224.278,-11.824 83.066,69.272 225.026,-124.452 196.557,185.172 -125.708,0.264 86.558,48.433 -100.742,3.967 26.483,72.302 220.514,38.905 117.625,91.242 218.341,-84.541 251.924,68.62 94.424,59.734 -73.127,24.036 240.543,89.597 240.498,0.148 -53.625,99.524 83.067,-17.376 5.14,57.216 123.725,37.285 75.511,-24.119 -105.3,-36.305 436.998,92.254 138.938,-11.948 -262.894,31.643 -717.069,-11.728 -0.739,99.758 -42.716,-63.472 -65.391,27.474 56.508,171.564 325.318,80.364 -130.254,19.851 168.58,104.483 -173.735,-24.727 61.137,93.161 268.583,8.984 132.368,-54.851 122.552,70.263 33.218,-70.776 14.94,51.854 263.437,66.031 -84.829,9.538 154.043,97.298 72.984,-1.445 -75.735,-42.762 544.249,221.158 127.971,-30.072 -7.521,59.773 180.451,-109.526 399.958,305.443 275.558,-49.297 53.243,-170.651 477.279,-47.288 -41.734,78.996 -220.452,-6.156 147.162,37.591 -360.316,-39.263 96.056,96.853 -27.378,176.467 91.311,50.324 77.326,-34.502 73.726,113.845 143.188,-156.217 43.503,140.978 -395.814,87.188 166.582,-16.12 296.509,113.569 165.106,-77.947 411.075,43.617 -128.154,-142.238 8.449,-109.743 138.572,-34.766 167.382,48.099 -2.634,-87.077 19.466,113.595 -287.232,29.034 146.808,126.984 277.427,4.334 527.178,221.874 21.706,214.454 -192.502,-204.616 -493.482,-162.305 -94.05,66.099 -533.077,-35.705 -124.947,57.254 -379.028,-62.583 -13.66,69.272 59.041,124.044 418.017,76.645 184.959,108.433 438.038,35.548 -36.427,-86.539 123.265,-64.135 261.537,92.779 -193.654,158.508 -1.601,-43.176 -87.358,335.877 99.935,60.12 197.538,-32.628 52.476,94.31 112.502,34.268 -175.134,17.903 161.224,151.004 22.213,142.035 121.84,66.894 -0.16,118.692 -181.861,-76.2 -59.744,-82.438 11.228,51.407 201.877,164.68 -79.051,-13.916 195.607,329.237 92.139,-6.911 2.639,98.082 196.89,89.683 11.284,130.114 -185.96,19.844 -95.288,-175.917 -93.542,-21.087 -192.572,184.112 128.83,-25.364 662.854,268.509 -187.946,86.652 124.696,184.871 123.698,152.615 284.824,62.901 -132.44,132.273 51.342,68.057 -63.195,-67.541 -129.12,82.942 111.6,89.345 162.294,-66.889 122.173,127.188 -287.141,116.563 -255.844,-85.7 -113.78,-122.044 -172.071,91.321 -18.899,-81.889 -267.891,31.399 515.283,-414.184 -240.011,-308.784 -328.023,-3.984 -424.642,179.088 -65.527,113.101 99.831,95.415 -130.781,-104.827 -46.777,89.746 -94.266,-43.294 40.617,-65.159 -96.83,37.692 79.117,109.961 -124.511,16.541 31.875,86.277 -178.297,-17.266 89.663,-89.199 -61.504,-102.052 -208.967,58.901 83.34,138.069 -122.553,-124.948 -78.539,30.462 160.403,136.603 3.434,53.977 -158.617,-105.421 179.504,235.255 -184.839,-175.585 -86.478,57.635 215.348,236.502 -183.36,58.042 180.855,66.966 -116.922,6.373 118.882,212.009 -159.999,-149.1 108.91,139.512 -97.205,-75.912 4.453,80.981 138.009,37.003 -143.468,39.641 170.292,175.897 -36.888,107.44 113.41,-72.612 -92.417,108.415 150.798,93.657 -142.538,-55.082 1.397,84.957 76.249,-6.372 -61.043,69.366 141.669,-6.354 -33.874,162.963 120.281,-41.537 -106.372,157.185 72.525,-0.577 70.832,190.667 53.067,-105.432 -54.733,150.006 96.067,16.4 -62.877,15.115 111.004,191.56 50.728,-82.686 -37.913,205.343 54.67,-76.658 -4.073,111.534 92.906,19.52 -23.994,73.525 -87.656,-46.712 81.63,311.232 99.005,-46.131 -34.76,-186.318 109.182,175.803 -72.656,109.074 -75.594,-54.248 -59.953,128.524 136.14,116.264 -113.935,16.349 128.999,29.13 -208.873,39.434 166.582,-18.865 -162.717,154.162 192.4,49.829 -100.401,-21.119 34.247,64.361 -86.651,14.459 71.543,12.461 -151.13,50.333 66.838,65.774 176.346,-108.349 -172.348,110.623 38.805,85.522 114.695,-29.158 -85.723,68.475 83.944,-35.004 4.851,93.942 117.4,-112.16 -19.959,-69.096 111.903,21.011 -42.036,-97.652 65.645,51.922 14.703,130.248 -112.468,-40.327 -143.9,147.506 92.517,-0.331 -56.787,60.141 87.733,41.802 18.515,-83.662 2.017,131.555 76.799,39.349 -15.078,-85.828 74.344,137.98 51.319,-262.818 -17.597,374.11 99.041,34.219 46.616,-143.296 14.183,168.094 90.815,-49.166 1.255,79.205 -117.612,6.017 102.558,111.641 268.322,33.304 105.632,-123.427 -67.169,-347.948 108.522,-55.056 -143.257,-222.88 372.79,325.549 32.813,-61.004 92.371,130.206 -51.526,-125.173 111.939,166.085 363.256,155.377 6.035,109.546 230.527,185.958 146.149,-128.538 -115.361,-227.896 135.749,-85.883 -215.338,-390.334 -258.43,-201.349 48.109,-47.058 -105.486,30.763 86.159,-146.628 -78.748,-100.131 110.03,58.572 -41.806,-171.674 -86.104,24.11 8.307,-156.928 -288.818,-86.465 -85.232,51.512 -501.521,-527.141 89.241,14.363 -64.501,-404.855 -97.743,-197.729 -247.008,-139.652 67.894,-11.425 -141.143,-104.662 94.38,-7.645 -80.122,-86.424 127.657,-132.868 263.49,76.091 287.699,763.7 366.449,202.899 187.944,210.069 173.916,-17.692 2.6,-82.288 122.022,129.833 136.164,-704.74 97.402,74.36 197.107,-89.316 -85.128,242.307 86.456,89.848 -207.162,156.647 -41.274,291.104 228.754,155.557 67.726,-75.549 245.764,237.151 9.344,131.697 -267.049,-65.294 -26.134,127.537 182.765,290.632 380.084,313.108 -65.329,73.341 -124.542,-225.28 100.847,192.091 -19.578,99.918 57.737,66.363 38.459,-61.717 5.857,207.18 -45.933,-144.853 -35.407,175.464 -187.439,-25.736 -154.44,500.612 72.739,114.003 -342.937,-49.042 -145.297,314.474 -57.135,-127.613 -100.95,107.2 -184.226,-60.229 -156.498,-227.436 9.951,-298.722 -146.66,7.159 -150.932,-289.62 -101.468,318.444 423.771,609.299 15.407,-61.23 124.433,62.395 -17.451,84.849 299.3,78.549 -210.105,14.531 79.655,146.119 -134.078,-38.592 -83.851,109.716 109.914,62.414 -231.54,91.72 -13.967,129.415 155.671,82.41 -30.549,122.772 -186.038,-125.403 75.564,324.511 131.774,9.927 -139.552,153.271 146.587,-23.658 -305.407,357.763 123.403,178.822 -121.687,374.818 -367.473,49.938 255.206,255.528 -197.885,147.624 -119.678,-77.074 -233.125,239.782 140.747,24.032 -85.447,27.82 109.983,117.833 377.597,-79.446 240.645,235.564 145.488,-12.309 65.214,186.985 43.042,24.738 203.675,646.622 -1014.603,450.586 -158.723,-40.246 -230.647,339.974 216.863,154.87 200.537,671.427 -10.659,451.7 94.938,-107.925 0.26,195.988 125.794,-47.597 -45.248,25.49 105.566,414.975 424.396,-261.701 398.332,265.776 170.644,-320.941 460.64,-224.956 43.4,-286.255 128.454,-106.774 -48.425,-229.256 88.87,-190.053 -139.214,-63.417 -66.292,-179.427 40.66,-481.949 268.971,-464.986 -178.953,-235.46 -2.422,-164.086 82.934,-151.529 415.638,-70.842 173.876,-653.225 287.234,-34.599 393.053,308.236 1038.182,56.83 268.614,232.966 54.329,293.209 74.83,-32.398 -70.566,-300.698 45.088,-134.506 -217.725,-93.291 -59.895,-223.949 149.465,-87.621 146.821,60.556 -38.126,-109.432 -557.298,-7.499 -52.741,-138.402 -204.211,134.128 -417.425,-247.348 -281.329,-25.241 -241.286,-275.909 113.087,-262.033 232.119,219.874 -10.551,-209.937 501.679,287.24 136.844,-87.781 208.113,35.346 -121.866,48.524 308.14,-91.785 222.151,61.098 210.783,386.482 428.973,173.484 31.201,-75.807 -7.55,109.173 126.464,68.705 275.84,-253.76 1.243,101.123 -225.116,144.332 30.754,128.285 245.045,174.672 14.879,-112.635 147.61,107.445 -51.673,-125.783 126.539,10.678 -244.446,-209.69 112.173,-81.874 -135.055,-35.458 29.966,-115.662 124.588,24.022 -83.985,-133.07 -293.091,49.262 31.418,-112.869 -74.054,-66.923 76.236,-15.617 -313.433,-206.344 6.522,-88.178 236.27,28.322 -98.427,-70.892 106.467,-44.529 -179.597,-51.204 95.925,-255.003 230.555,-146.82 53.231,231.056 -50.526,-407.925 124.514,-212.713 -382.905,-146.683 -31.886,63.11 -107.978,-425.836 -277.195,-366.305 66.524,42.507 13.617,-119.45 -202.134,-216.316 55.31,33.753 -34.274,-116.813 36.664,123.864 -47.556,-206.487 -90.576,-22.348 89.811,20.975 -80.979,-137.99 10.918,-233.41 117.427,23.948 -82.441,104.544 65.667,-38.607 20.806,68.054 141.605,-217.665 75.044,54.76 18.694,256.873 35.197,-109.617 195.041,157.794 77.855,-41.755 -60.761,-573.265 -47.046,177.586 -220.265,-84.731 224.239,88.755 -44.642,51.123 -149.381,-45.082 -93.18,-222.568 88.054,118.175 -76.657,-242.713 17.957,-568.62 107.656,206.068 -48.766,113.726 187.885,8.599 -62.95,-0.246 159.607,276.299 -5.577,166.601 733.549,-198.631 198.742,126.218 83.197,148.831 46.258,277.512 -76.708,271.461 -169.364,221.751 -253.718,22.175 -91.624,256.742 31.466,511.293 -187.941,265.557 88.578,83.076 72.728,-78.932 -65.482,155.507 54.981,63.944 -210.853,307.574 33.495,200.219 74.104,116.385 67.217,-147.481 145.043,249.25 80.227,-17.141 -23.835,104.392 -91.347,-50.335 55.695,125.95 151.58,-80.479 32.227,112.825 134.63,3.505 12.292,123.874 85.714,-181.47 -19.805,232.46 62.138,-210.024 240.952,-8.589 50.416,-126.391 -96.253,-188.763 44.964,-80.2 272.998,-60.374 50.422,-227.086 -57.416,-236.295 94.505,-52.623 -5.853,-193.148 198.039,348.647 200.923,192.356 409.367,1023.06 -121.129,422.033 -89.934,-85.509 -86.553,128.83 -60.926,506.704 -302.922,181.847 -205.675,260.251 -91.946,-77.168 -219.97,210.052 -97.895,-89.232 -217.261,133.143 -94.913,433.271 183.739,349.598 -67.07,309.341 -249.612,-1.532 -375.096,180.964 -215.695,-184.804 -351.426,113.541 -165.435,163.322 -471.602,14.925 -85.406,-80.957 45.657,-425.366 -242.713,-159.917 -47.254,-328.635 -41.582,177.357 -202.876,-87.095 -232.13,361.542 -287.021,108.701 -127.303,247.518 -296.916,85.287 -467.39,429.113 -130.507,300.269 -170.835,130.669 -130.245,292.327 -181.362,78.367 -66.966,-81.667 -328.418,234.677 -238.306,-134.032 -84.46,79.759 -12.549,598.757 -416.384,657.766 -31.712,388.812 149.974,376.439 -71.661,274.186 -239.854,411.517 -317.285,216.978 -99.314,444.005 -177.675,201.465 -25.225,480.972 -216.116,337.712 46.424,-65.802 -232.275,733.863 9.312,289.41 38.335,-108.618 234.022,218.353 -58.737,270.935 203.103,429.721 -72.463,622.975 -236.334,341.284 311.997,162.856 17.263,143.167 255.672,-117.144 -209.951,136.138 -107.837,-29.882 11.933,248.986 151.706,-53.268 -150.801,99.621 215.928,-43.361 -88.231,95.156 142.743,-11.328 -21.843,78.752 277.489,-152.943 -153.804,101.768 136.843,0.454 -123.424,124.762 83.913,67.495 59.714,-69.522 -13.893,77.947 102.459,-74.893 88.89,213.958 265.333,30.556 -45.021,94.1 120.39,8.567 53.481,201.822 92.818,-38.315 -123.584,78.148 245.049,96.295 -10.643,106.3 365.681,33.167 711.422,257.028 334.701,-18.263 346.506,-310.976 536.329,-309.162 516.983,-118.528 773.294,-784.436 558.772,-454.135 -89.47,115.805 232.657,-131.719 154.191,59.541 62.003,-95.366 -57.394,104.779 103.863,-40.938 -79.434,65.318 44.599,18.551 66.638,-83.777 -61.877,141.106 151.735,125.056 155.584,-112.23 -0.963,-71.432 35.443,42.369 -24.487,-64.345 53.836,40.659 8.28,-101.869 61.632,34.78 195.672,-163.126 -16.45,-92.116 74.966,64.018 51.906,-107.956 93.304,143.027 102.014,-117.627 26.169,55.55 -58.994,44.262 98.158,114.966 -111.439,564.091 72.282,-30.485 -4.545,156.753 -72.398,39.865 138.294,-22.171 -98.487,104.226 -30.917,-51.141 -46.165,291.407 -88.645,54.493 177.65,272.052 389.216,146.338 56.856,222.24 89.039,-16.144 -79.526,92.927 139.51,323.411 -100.67,216.99 75.456,276.204 -100.044,292.479 -272.757,422.8 -298.444,608.818 -143.609,407.271 80.179,429.403 -327.001,578.303 -189.486,360.631 -102.092,106.501 -108.848,111.175 -130.667,130.96 86.848,-86.742 70.164,-70.95 466.836,-492.954 274.87,-308.473 363.529,-430.97 650.39,-846.011 367.512,-528.204 228.035,-349.254 341.194,-558.175 -36.649,62.194 2.992,-5.056 492.243,-888.421 199.815,-397.913 82.09,-170.927 85.106,-182.247 2.016,-4.383 207.506,-468.701 130.366,-314.378 329.091,-880.938 178.333,-546.502 102.247,-343.258 25.404,-89.361 72.953,-267.019 52.984,-205.2 -13.14,33.101 60.113,-315.005 31.742,-149.337 -14.824,53.949 52.468,-260.612 -11.793,-73.182 65.195,-408.369 94.079,-657.671 47.524,-272.264 -6.866,-36.471 26.127,-101.253 101.82,-1092.163 55.27,-906.335 -6.514,-886.451 -178.304,-1755.1 -48.553,-226.169 -10.473,-132.248 3.866,83.418 -87.292,-385.746 -7.14,61.656 41.987,423.847 -7.41,436.273 13.427,310.559 -24.04,81.672 -3.424,361.297 -120.475,-17.755 -18.499,145.182 2.463,-278.544 -33.973,-107.415 -244.52,-100.573 -73.819,110.497 -63.005,-70.688 24.939,130.983 -326.498,-496.592 -150.337,17.637 -265.236,-508.846 29.94,-2.237 -139.963,-162.476 -187.661,9.894 -133.293,-203.439 25.708,-50.773 -122.436,-28.379 -562.859,-529.219 -238.641,-107.248 -154.11,-205.99 264.738,203.868 196.332,25.919 -206.456,-556.505 179.301,412.859 52.58,-101.234 525.543,322.688 116.802,160.101 135.403,-45.669 204.949,200.834 153.95,303.328 227.949,24.669 372.478,348.369 125.364,379.917 224.161,443.948 43.117,-327.365 -26.775,-263.127 -5.942,-759.781 -43.002,-265.437 -91.084,-780.786 -75.605,-246.237 -100.578,-616.809 -87.589,-261.398 -38,-198.983 -96.478,-268.064 -64.995,-253.152 -129.646,-270.198 -54.667,-145.613 7.857,-17.793 -264.077,-623.869 -107.662,-78.593 11.322,202.012 -51.053,-13.114 -140.515,-174.551 -107.26,-193.691 361.91,908.274 15.429,259.637 42.648,151.555 -42.716,65.589 -217.89,-400.693 -5.788,91.619 171.692,314.665 -169.847,-136.168 -90.469,-169.206 -141.357,29.318 -267.649,-242.383 -7.312,65.299 -21.884,-121.986 -83.986,-70.781 16.639,-148.935 -59.096,-86.171 63.008,-29.234 -27.568,-131.666 339.431,241.236 30.988,-126.445 115.815,-34.533 6.48,-149.333 -152.187,-482.532 175.291,175.693 -105.766,-641.301 -404.738,-951.924 84.586,116.649 -45.849,-100.635 90.606,134.876 -82.94,-162.447 56.567,94.001 -88.323,-157.778 79.464,138.933 6.941,-3.869 -138.191,-245.068 76.298,131.177 146.982,264.183 -4.708,-12.152 -185.606,-327.089 -150.47,-254.015 -56.226,-92.535 76.224,125.752 33.402,55.847 -41.997,-70.143 78.032,130.909 28.255,48.032 133.702,232.028 341.26,631.591 306.741,625.25 168.592,372.119 3.912,8.908 -71.916,-161.724 -81.489,-178.254 -103.786,-219.895 2.293,4.776 -116.81,-238.863 -56.184,-111.797 -142.412,-275.043 -242.655,-443.732 -186.906,-322.811 -95.335,-158.919 -74.312,-121.358 -107.689,-172.135 -144.175,-223.909 -63.271,-96.014 -374.264,-542.203 -257.239,-349.484 -239.771,-310.559 -198.702,-247.141 -72.573,-88.082 -165.967,-197.247 -107.661,-124.945 72.193,83.526 -129.1,-148.643 24.183,27.595 -75.914,-86.246 28.182,31.888 -91.66,-103.162 7.727,8.635 -104.951,-116.341 54.818,60.514 -171.454,-187.456 84.561,91.79 -51.604,-56.167 -78.276,-84.294 -100.754,-106.928 245.947,264.148 -103.967,-112.959 84.043,91.161 -59.752,-64.942 56.074,60.926 70.171,77.043 27.653,30.607 -104.54,-114.977 235.919,262.35 302.951,352.687 -93.589,-110.932 95.845,113.629 -71.114,-84.492 20.229,23.927 -81.945,-96.407 24.962,29.222 -115.139,-133.748 -100.499,-114.608 -39.13,-44.098 12.544,14.105 -108.304,-120.809 -115.233,-126.17 113.83,124.618 -55.983,-61.582 283.072,317.393 184.004,214.668 -81.589,-96.029 141.071,166.905 173.665,211.258 -6.045,-7.466 211.113,265.622 105.511,136.7 -78.21,-101.588 385.163,515.388 -66.313,-91.515 153.232,213.33 305.948,446.665 159.694,245.135 61.57,96.892 -91.986,-144.257 19.261,29.956 -159.555,-244.319 -270.104,-394.88 -101.608,-142.907 -100.948,-139.117 53.527,73.418 -287.836,-385.929 67.077,88.03 -169.497,-220.312 -398.664,-491.905 -184.112,-215.703 -147.132,-167.544 163.445,186.381 -111.254,-127.428 2.816,3.196 181.494,209.24 -96.642,-112.226 112.055,130.298 -61.833,-72.21 3.812,4.429 241.756,287.007 -37.668,-45.524 -198.114,-234.535 -77.048,-89.06 15.697,18.049 -82.072,-93.837 23.89,27.18 -44.252,-50.259 -20.507,-23.162 -8.885,-10.011 -27.257,-30.618 -51.387,-57.344 -13.406,-14.88 -356.805,-384.167 -265.759,-272.097 -30.678,-30.679 -462.662,-445.377 -112.805,-103.887 -6.702,-6.116 -228.074,-204.516 -230.035,-199.337 -160.666,-135.256 -93.292,-77.082 -15.553,-12.748 -47.024,-38.369 -87.059,-70.341 -162.267,-128.746 -96.798,-75.368 -84.087,-64.616 30.603,23.425 -130.732,-99.35 13.594,10.244 152.951,116.652 117.068,91.051 -45.88,-35.868 -259.826,-198.684 38.891,29.266 -216.15,-160.587 -65.848,-47.932 -62.288,-44.924 -65.897,-47.088 -34.685,-24.607 -147.747,-103.443 74.692,52.019 -86.407,-60.127 8.206,5.677 -184.144,-125.812 78.318,53.1 -51.881,-35.243 -136.22,-91.286 54.44,36.267 -133.001,-88.102 25.58,16.813 -172.275,-112.037 -100.665,-64.18 -13.406,-8.477 -127.986,-80.097 -93.662,-57.676 28.262,17.32 -193.647,-117.25 -16.371,-9.761 -112.289,-66.317 -74.657,-43.488 -42.054,-24.285 -75.038,-42.96 -28.883,-16.408 -113.027,-63.535 25.728,14.368 -158.848,-87.833 -125.242,-67.787 32.377,17.401 -35.734,-19.2 -54.814,-29.252 -24.445,-12.967 -394.142,-202.513 -21.352,-10.623 -162.918,-79.899 -77.115,-37.112 -104.56,-49.602 -18.159,-8.531 -80.876,-37.694 -95.162,-43.73 97.415,44.774 -189.868,-86.619 -1.875,-0.842 174.945,79.69 -407.271,-182.061 -80.924,-34.744 70.39,30.194 -187.769,-79.76 -76.383,-31.73 -323.428,-129.834 71.779,28.188 -74.383,-29.204 -385.695,-145.376 -27.113,-9.842 -73.294,-26.36 -122.497,-43.258 -271.755,-92.44 -52.075,-17.164 -146.363,-47.303 205.815,66.912 399.091,137.622 -172.789,-60.871 155.457,54.676 -148.614,-52.302 -237.413,-80.54 -663.998,-205.965 -199.921,-56.558 52.658,14.656 397.625,116.264 -117.464,-35.381 276.879,84.801 -664.017,-195.277 -238.412,-63.408 249.846,66.537 -15.112,-4.134 106.684,29.486 155.67,44.297 -77.046,-22.113 77.797,22.33 -67.466,-19.386 -51.407,-14.581 -53.851,-15.098 205.565,58.605 -24.195,-7.035 123.183,36.201 55.44,16.605 -82.028,-24.499 141.028,42.384 -51.609,-15.656 347.146,108.583 81.06,26.468 48.389,16.004 50.563,16.885 -210.152,-69.091 77.316,25.087 -137.91,-44.478 48.442,15.483 -100.739,-32.03 -12.814,-4.028 -139.292,-43.105 -8.921,-2.719 -314.779,-92.711 -267.64,-73.957 -302.859,-78.365 -2.853,-0.711 -146.981,-35.991 -574.306,-128.179 -238.246,-47.427 -261.165,-48.164 -89.4,-15.574 -44.883,-7.644 -268.338,-43.27 7.735,1.189 -452.146,-63.752 -1040.557,-102.661 -914.022,-40.13 -419.266,-1.442 -210.934,13.64 179.081,12.28 -108.64,-1.375 -39.882,5.723 314.759,18.853 199.694,1.553 15.144,-6.464 239.255,-4.036 -86.707,14.628 182.265,-6.813 -21.537,19.776 199.129,6.226 86.308,13.498 -552.988,26.855 -703.782,121.15 -512.162,34.944 -64.615,-10.563 -63.497,21.287 -393.57,22.064 -56.164,34.409 -479.428,29.892 185.444,-31.089 -52.071,-7.58 -584.857,106.737 54.868,8.877 128.658,-23.798 12.309,22.499 -242.776,150.12 -485.742,136.582 19.544,-58.127 -31.707,-14.916 -82.856,27.083 -10.623,-29.565 -199.201,129.569 -129.412,34.97 103.228,41.402 -159.693,59.51 -116.624,16.456 130.364,-55.509 -113.274,-82.968 219.334,-88.938 320.263,-225.339 219.439,-53.948 56.936,-63.159 -34.042,-52.393 -501.99,-6.544 -241.548,72.669 78.774,-0.451 -283.443,65.96 103.514,8.004 -313.549,99.085 140.406,21.039 -196.171,57.261 226.615,-2.593 -59.4,38.051 245.991,-51.555 -50.093,142.211 -110.24,38.976 -86.173,2.578 -122.052,88.663 -80.187,-24.447 -29.105,55.091 -279.889,112.358 -235.797,30.033 36.747,27.838 -190.872,198.718 -301.272,221.823 -277.499,109.747 25.012,40.141 452.511,-21.072 -48.191,-9.488 179.069,-16.585 105.074,-87.137 31.206,15.795 116.126,-50.282 -454.29,231.879 13.504,94.116 158.824,27.422 -80.797,51.294 -170.745,-35.239 -173.666,112.864 -253.845,38.867 -258.208,99.404 29.043,27.023 -92.984,3.348 -50.485,61.911 163.208,-54.838 -37.566,75.122 89.679,11.849 126.362,-51.405 -220.164,115.927 112.141,-16.573 -121.812,50.254 41.079,66.917 339.006,-101.373 199.76,-108.269 71.234,-58.544 -246.537,8.418 425.026,-19.466 668.581,-172.028 0.296,-0.02 m -2241.577,32877.55 69.722,26.307 -5.636,-2.114 246.867,90.604 47.443,16.945 -101.604,-36.473 14.02,5.073 -107.692,-39.311 216.442,78.223 54.079,19.057 288.292,98.346 160.562,52.425 -131.607,-42.848 -114.294,-38.122 114.882,38.316 -106,-35.323 154.794,51.338 -92.686,-30.553 93.758,30.903 73.812,23.929 4.617,1.485 258.778,81.053 -60.643,-18.611 -223.16,-70.508 -258.333,-86.277 51.375,12.565 251.035,76.027 -81.069,-45.18 150.758,29.42 -169.843,-58.373 110.855,29.159 95.099,37.112 84.658,17.022 -84.356,-39.655 -118.202,-23.284 -155.791,-57.22 -109.151,-77.178 301.351,104.237 286.118,68.826 -108.821,-98.792 75.51,23.8 -121.323,-62 296.396,87.743 569.373,107.334 198.314,16.396 140.911,-47.93 -44.68,-45.938 -177.223,-60.333 8.021,-46.641 -385.337,-147.42 -43.134,-119.504 49.748,81.301 172.349,80.713 442.352,122.554 488.236,64.284 329.465,-85.287 36.734,-113.044 264.385,-105.042 -66.739,-46.813 209.645,73.96 -344.673,123.226 305.01,-59.203 240.691,-164.689 235.855,-60.635 50.869,-158.54 -113.93,-114.102 114.328,-82.639 -113.973,-36.731 150.184,26.816 165.943,-89.162 326.641,-80.148 275.329,8.05 278.118,-108.339 247.778,30.194 134.198,-52.107 11.367,43.871 299.604,10.653 13.227,-66.658 282.351,-72.622 -26.33,-74.765 369.712,-291.096 33.216,-199.438 168.456,-114.623 95.262,-870.061 47.828,-48.279 66.389,80.612 124.091,-68.424 979.015,-899.237 49.51,-256.526 -139.891,-354.916 -110.235,-75.999 -478.731,-11.16 -413.474,-275.466 -485.087,-193.975 -702.151,-3.812 -364.218,-133.6 -435.925,216.078 20.498,-167.68 121.424,-60.181 -196.179,15.589 157.581,-84.036 -110.023,-155.018 -126.738,95.448 -27.788,-126.976 -60.834,42.035 33.064,-49.895 -87.304,27.452 -91.659,-97.168 -49.779,57.878 -15.632,-99.513 -46.968,50.01 -294.518,-145.595 -23.632,53.506 -213.716,-58.952 -136.489,177.403 132.978,33.015 -117.756,25.893 -64.326,-79.661 -256.77,204.701 61.787,-146.347 -358.467,13.697 477.272,-53.917 157.874,-271.363 -605.104,-112.025 -141.878,202.739 -10.825,-112.705 -127.35,89.78 -12.702,-116.133 -126.602,97.726 119.404,-202.374 436.928,-257.353 -74.21,-11.284 64.328,-116.065 -256.858,-126.725 -157.425,-560.421 -75.146,-54.931 -35.052,89.236 -189.526,-253.375 -565.501,-327.974 -895.342,-149.011 -345.062,-348.22 -108.952,111.012 73.523,-235.957 -158.212,-201.104 -335.56,-261.03 -189.68,-31.544 20.905,-225.004 -216.72,-181.417 -203.239,-29.501 -145.208,-192.15 300.026,-23.274 -681.758,-164.651 170.319,97.009 -407.593,-0.08 -314.063,-260.361 -524.923,-127.365 -52.938,-213.461 -322.057,-195.663 -82.454,-236.576 -75.758,132.467 117.052,26.156 -4.305,73.486 -88.746,-72.4 -408.566,61.251 117.946,347.339 -23.398,102.866 -175.443,2.626 -90.219,-246.554 171.374,-180.44 -73.907,-269.808 240.711,-45.385 -131.437,-169.406 -457.1735,146.874 -221.474,-108.897 -45.801,76.092 -140.063,-93.634 -115.412,34.654 -133.495,124.755 -0.836,194.127 -355.566,79.818 23.958,188.065 -238.327,-448.212 -252.474,-253.902 -154.899,-96.026 -370.913,23.674 -176.429,-206.602 16.328,78.064 -103.264,-75.2 -282.673,-824.968 297.157,-718.207 9.24,-274.471 -311.527,-421.289 -668.034,-358.574 -144.733,-171.023 214.431,-182.122 124.024,-359.841 -58.865,-49.865 104.456,-80.281 -7.098,211.557 190.443,-321.731 -59.339,-67.767 325.451,-324.306 -241.815,-265.226 -460.008,-148.503 -223.47,392.792 -229.266,123.621 -125.935,-183.052 -417.555,-153.946 -78.819,-294.927 -113.339,-105.202 -1.182,-1189.614 34.77,-156.813 208.792,-504.013 90.678,-184.466 79.661,17.702 -64.138,89.937 166.122,-190.752 112.163,-386.285 -51.632,-59.389 62.462,44.237 135.132,-189.552 153.933,45.553 -4.934,-112.529 97.421,118.618 -58.479,8.581 242.217,6.427 102.181,-153.189 62.548,116.794 -72.732,9.068 188.213,47.538 35.989,-86.435 -33.118,83.598 228.087,255.456 119.865,-12.802 76,335.433 102.872,-14.962 33.121,101.829 36.424,-127.99 64.857,82.263 -2.682,200.722 104.938,-16.661 -82.079,-198.887 121.799,-26.412 -166.135,-245.09 413.815,273.18 79.648,-110.552 -6.671,139.471 -64.167,9.457 228.544,22.331 -60.078,52.963 200.93,83.048 -71.128,-11.003 166.62,139.019 -29.42,209.079 274.502,8.213 79.612,124.172 99.731,424.061 -147.665,255.263 99.308,32.879 -105.848,98.159 14.713,198.399 80.263,25.893 -43.298,333.433 118.61,182.831 -53.128,118.74 120.107,49.525 -21.516,59.017 279.509,-462.447 112.114,-1434.115 296.991,-180.876 -0.756,-97.851 15.568,92.184 538.0905,-233.773 623.933,-74.667 -120.905,-97.095 133.28,-25.672 -84.607,-116.243 155.952,128.181 120.335,-45.9 12.418,-113.321 -73.31,77.094 32.266,-102.363 -145.444,-48.536 147.963,-55.401 59.885,106.162 38.236,-203.992 -16.599,314.43 30.712,-377.113 -163.406,-187.311 98.308,99.214 -29.839,-165.975 28.532,112.212 76.951,-71.946 -77.236,-182.492 69.667,162.717 57.287,-70.08 -165.009,-235.999 57.484,-81.783 107.09,267.176 82.071,-382.793 180.65,-10.98 -179.354,152.561 46.348,322.892 -157.921,220.11 325.197,-292.427 54.815,-428.088 43.304,290.295 246.252,-172.825 46.001,-233.322 199.649,-95.803 455.009,79.467 65.565,-129.423 2.477,124.473 271.537,38.056 20.732,-124.568 -91.269,77.439 -74.326,-250.818 305.014,-336.067 97.094,27.293 35.642,-103.137 97.001,87.881 153.85,-189.907 -37.685,105.449 143.438,-41.858 10.216,88.157 269.737,-70.373 -5.699,-137.332 127.268,96.747 500.897,-116.811 -172.519,129.208 318.374,81.769 -179.348,66.182 -48.532,-123.309 -404.443,152.054 -79.241,205.06 110.52,149.451 340.973,-264.015 122.503,79.087 23.21,-89.69 522.346,-11.843 82.962,-21.946 -148.153,-218.602 -292.611,-21.474 -228.85,-263.369 55.609,-231.959 -120.942,-35.002 190.133,-183.027 -185.4,10.504 0.527,-101.071 -173.989,-80.589 295.676,84.85 216.056,-68.551 13.794,-221.62 -281.331,-117.106 -431.364,45.841 -762.081,329.046 348.358,-188.588 41.822,-147.723 594.594,-142.646 269.54,-223.933 1208.358,334.198 308.138,-248.048 335.706,18.039 282.32,-155.672 -78.459,-127.779 114.408,22.587 -156.8,-78.653 141.349,29.44 -61.978,-85.978 106.19,-137.734 -90.439,-158.434 -185.16,77.399 82.014,-144.655 -160.948,-126.094 -538.706,190.061 501.987,-194.603 -226.803,9.631 436.653,-76.613 -134.848,-80.061 56.783,-44.94 -184.986,-7.398 18.053,-98.503 -79.733,40.335 58.409,-71.668 -168.046,116.831 124.02,-101.327 -101.074,-7.316 55.255,-58.641 -185.599,65.56 134.025,-216.214 -78.444,52.925 36.509,-73.824 -175.969,-91.729 95.34,-57.433 -114.361,-29.887 77.712,2.299 -85.395,-81.551 98.827,4.349 -120.792,-99.614 125.135,75.758 95.835,-126.499 -145.766,-159.652 114.224,-14.916 -92.026,-117.074 60.117,-60.212 -159.782,20.449 174.812,-112.376 -178.816,9.97 157.127,-84.757 -5.555,-111.95 -138.984,-27.952 121.722,-21.433 -103.423,-288.179 72.274,-48.038 -53.689,-55.215 -170.326,145.127 33.34,124.02 -119.328,-0.812 36.677,82.192 -139.155,28.831 -47.164,158.337 9.131,-181.951 -292.228,172.151 22.517,-175.109 -172.285,127.565 148.158,-198.981 -271.375,-96.49 95.533,-56.088 8.846,84.34 111.304,-125.417 -73.166,-26.161 92.767,-173.847 -146.038,-80.441 173.821,56.912 149.675,-264.659 -88.657,53.401 -175.806,-181.41 75.32,-120.152 -97.13,-24.952 -38.865,-311.75 -159.803,53.435 -264.032,-281.214 -143.957,38.779 -39.539,224.788 -215.452,147.253 96.252,28.822 -93.418,224.789 -404.311,266.035 100.624,275.881 -195.056,469.416 -327.7,219.008 -403.349,17.654 27.753,178.446 -212.834,570.869 -169.32,78.219 -62.881,175.789 7.355,-169.812 -150.523,108.634 -109.167,-108.516 77.788,-111.197 -49.048,-475.672 378.599,-578.319 -358.185,-251.4 -247.502,-979.089 -296.67,-76.685 131.349,-68.666 219.038,-383.84 -87.612,-98.286 -88.611,81.911 75.787,-207.768 342.566,-305.02 404.692,-150.365 15.031,-76.991 295.479,-2.361 10.348,-99.147 76.815,86.638 150.153,-30.038 19.372,-192.953 -101.199,-16.225 71.017,-32.972 -104.49,-159.513 79.145,-52.929 96.593,389.193 214.823,-113.109 164.031,127.882 317.65,-148.575 -173.941,-425.945 104.626,55.468 68.349,303.357 306.051,-99.732 -0.145,-138.779 181.692,260.409 32.479,-251.998 112.582,68.896 -63.194,162.212 412.674,-141.996 63.671,-299.673 159.57,23.485 -21.385,-94.051 122.382,-37.51 -91.408,-168.554 89.513,-2.549 -200.71,-180.546 -170.977,289.593 -71.246,-49.191 -367.021,260.094 -130.001,-6.492 334.074,-431.558 -9.783,-128.398 -304.033,169.567 181.318,-308.19 98.19,38.84 -118.596,-186.243 163.706,-80.912 41.823,57.928 246.989,-504.904 -407.232,104.2 22.396,66.536 -235.088,135.928 62.927,256.898 -73.341,-41.88 -159.266,90.753 114.941,-4.841 -77.843,107.93 -258.497,-19.884 -203.096,187.613 -5.792,-132.707 239.024,-127.056 -122.451,7.967 95.751,-41.83 -13.538,-93.892 -111.05,-66.262 -82.048,129.77 62.574,48.816 -111.947,75.964 65.476,-192.294 -123.638,57.418 -202.673,-217.17 66.211,-166.732 -83.06,-108.417 154.262,-211.367 -298.958,-69.693 27.35,102.835 198.318,54.38 -324.724,-24.24 -125.563,174.68 -86.099,51.547 5.164,-74.649 -137.176,143.299 128.908,-216.343 85.254,5.724 108.637,-263.813 -165.019,-79.729 -71.916,-256.411 104.231,-64.371 100.873,68.847 99.859,-142.529 -55.036,-148.734 173.717,-448.777 -173.374,-123.156 252.077,-98.328 -269.967,23.397 357.163,-296.13 -126.561,78.653 -251.372,-168.161 279.325,6.524 -255.452,-163.178 -24.484,-76.211 137.657,-52.919 -132.065,-72.16 -173.054,89.421 569.666,-638.575 315.746,-523.698 108.268,-89.872 67.218,19.047 58.863,-117.166 135.56,-52.814 -61.183,-56.285 91,27.28 101.261,-51.856 -76.286,-82.275 72.916,-107.907 -115.171,-17.845 90.888,-12.281 18.107,-109.562 -202.115,-144.534 120.947,-137.778 -84.61,-49.58 -351.861,151.91 -156.84,24.453 -155.64,134.856 -132.837,10.089 -98.8,88.349 84.392,-94.95 183.447,-58.532 -296.661,92.87 169.866,-184.475 169.64,-39.553 70.388,-254.385 -260.162,132.549 50.904,-62.427 -193.081,47.53 -277.042,217.713 58.552,1.438 -103.448,26.329 49.903,73.607 -97.75,71.659 -20.589,-52.942 -189.483,66.877 -59.052,-26.808 95.828,-90.11 -51.169,-70.267 136.921,-86.589 -247.311,-115.513 -140.417,49.1 -56.441,61.35 -20.051,-24.281 -190.631,142.599 53.314,-84.816 -193.689,45.166 -92.949,155.427 -298.962,89.767 -54.839,-38.916 -49.498,145.009 -277.181,159.651 149.61,0.375 -152.445,54.599 -0.144,105.912 -100.301,-35.364 -225.915,57.324 -31.643,-223.97 -125.343,33.924 169.36,-156.662 -86.997,-98.796 9.008,26.769 -56.519,44.503 84.064,-25.722 -108.428,76.139 77.119,11.948 -90.554,46.684 -16.127,113.802 -85.006,36.913 199.637,271.096 -15.857,117.246 112.472,52.424 98.559,-95.981 87.834,-16.709 291.057,224.842 -35.792,121.843 -42.914,-65.116 -147.098,122.653 133.182,-144.702 -26.206,-76.649 -217.155,10.415 -46.262,86.887 -112.857,-40.213 7.962,163.203 80.255,-18.089 -74.218,34.4 101.896,-16.607 -95.718,106.488 102.863,14.98 128.237,-95.079 80.676,62.21 -110.874,13.71 69.649,12.529 -80.46,30.638 21.875,82.997 -41.159,-24.694 -51.552,70.27 -10.716,-47.629 2.731,50.368 -94.124,32.998 -43.115,102.468 -138.791,93.395 -68.245,269.561 -152.08,148.255 75.872,46.798 -82.929,85.997 -55.342,-18.657 120.452,-60.39 -112.339,5.988 -426.797,459.949 34.536,49.527 200.813,-176.914 -99.74,117.015 83.865,-28.165 -188.077,100.974 -50.387,103.028 335.838,-161.705 -299.603,177.253 -59.156,88.908 84.821,7.334 -123.046,18.355 -62.287,121.546 -20.5375,-37.56 -79.246,107.744 65.198,-109.054 -100.341,107.977 -40.908,-35.179 -264.196,348.456 -164.424,5.254 127.547,64.009 -90.949,82.649 -253.965,114.278 142.649,8.115 160.728,-60.779 -226.54,91.815 -24.435,72.335 -83.105,-46.054 -89.803,102.104 88.424,-102.048 -72.728,34.601 -36.626,129.931 -69.203,-27.186 -145.719,178.217 160.578,-15.816 -114.422,55.657 -10.854,86.104 9.459,-112.001 -197.165,260.455 -114.59,-3.556 60.554,12.716 -80.703,67.755 124.369,34.976 -217.828,20.277 -86.239,83.16 57.721,19.858 -92.974,-11.01 13.723,86.222 -52.712,-61.697 18.951,137.491 -53.125,-81.795 -1.658,180.387 -28.931,-33.93 -32.695,71.115 82.744,38.233 -99.317,-37.539 -42.655,110.346 76.19,-19.396 -67.76,29.001 2.706,64.783 126.431,-45.512 -150.911,67.584 57.701,64.33 -128.185,23.389 -53.797,115.896 109.279,-18.359 -102.338,120.871 -55.422,-24.559 61.105,72.633 -159.625,119.432 -44.96,135.241 -280.716,263.842 -124.827,-12.042 117.677,-28.561 96.148,-92.998 -150.077,31.694 193.143,-88.498 10.076,-305.584 -324.691,332.197 18.376,42.429 -165.595,87.82 9.539,96.014 -17.27,-79.601 -755.402,551.277 -280.852,342.694 -213.749,142.774 -286.287,407.012 -159.833,299.453 37.033,107.202 -105.279,162.841 49.892,-145.955 -113.873,138.247 -311.958,721.355 -101.86,124.967 7.214,460.518 -72.849,355.131 -450.725,1094.09 -71.912,585.643 -97.605,94.442 -10.477,113.932 -67.633,-204.271 -35.653,486.088 73.998,13.424 -44.235,380.161 -157.778,320.525 17.365,630.861 -46.533,221.548 90.338,19.691 65.041,-278.321 -46.536,-222.108 205.651,-661.183 59.642,-515.058 85.545,-189.484 98.853,-664.079 263.863,-501.928 29.303,463.928 -260.675,688.892 -53.603,429.609 45.934,118.256 -81.314,137.487 4.92,489.485 -108.478,97.795 62.733,382.953 -46.497,113.824 21.464,789.245 -58.998,494.284 -113.817,116.095 16.989,98.28 -72.052,-33.237 -15.901,126.479 96.372,785.898 182.785,356.62 67.435,328.129 579.681,1168.907 419.691,228.853 410.216,1046.696 513.729,635.22 -44.744,-65.082 276.601,151.239 -5.095,145.377 -81.256,-52.324 338.412,778.981 -67.797,4.046 57.767,72.106 -37.62,226.666 109.074,171.088 64.521,-36.947 -74.799,-173.83 106.673,154.367 215.081,397.709 -7.798,163.541 64.186,54.139 -11.801,-107.254 88.307,251.322 48.749,-52.378 216.913,157.992 42.403,163.347 113.246,7.324 19.854,205.244 107.356,49.974 113.592,-13.682 -94.397,-247.502 355.167,-34.6 140.865,264.76 90.558,24.729 -97.542,88.089 239.357,489.59 -100.902,570.101 122.647,133.855 -30.638,57.618 -168.544,164.617 -198.047,-44.166 3.039,170.297 -123.899,-31.527 22.945,153.047 -282.608,-79.219 33.266,164.906 -132.202,63.281 54.367,95.828 -150.481,8.026 10.709,302.985 158.953,180.773 84.311,-73.9 42.488,109.831 -61.681,143.289 -285.288,42.243 119.894,366.899 -64.029,32.679 295.171,324.258 277.6,445.972 423.664,810.932 442.033,594.913 -25.933,77.155 152.75,199.827 226.456,230.352 1014.9385,735.836 356.88,317.33 128.945,284.225 96.491,239.819 -17.953,267.759 167.126,290.797 5.029,380.272 136.943,146.88 -45.381,43.151 288.157,349.442 7.545,204.813 -87.901,-27.438 327.836,220.102 22.464,52.173 157.661,79.248 -33.713,-11.071 128.278,48.968 86.372,38.095 37.03,10.897 -60.441,-14.136 134.15,59.936 11.549,10.358 -93.465,-41.871 104.204,47.891 -75.965,-32.848 56.443,34.787 114.651,50.829 -65.542,-25.517 182.336,77.309 -100.05,-41.013 163.136,67.97 -128.465,-53.367 22.543,9.449 65.437,27.226 4.842,2.002 -85.469,-35.591 -103.636,-43.85 81.194,34.42 -65.134,-27.575 11.025,4.689 -38.318,-16.333 -80.991,-34.867 -59.241,-25.803 115.571,50.103 -18.522,-7.965 -103.973,-45.17 81.962,35.672 -64.863,-28.19 91.063,39.491 42.412,18.19 112.623,47.68 99.449,41.355 -85.773,-35.627 116.08,48.092 -131.352,-54.49 176.574,72.968 129.551,52.148 -92.621,-37.163 86.552,34.746 -258.631,-105.383 184.571,75.684 -85.923,-34.936 74.92,30.491 -15.41,-6.239 53.409,21.554 110.152,43.829 -128.683,-51.285 127.944,50.993 -158.585,-63.374 144.806,57.937 14.658,5.784 57.622,22.593 60.164,23.346 -150.076,-58.7 114.427,44.897 -23.23,-9.042 114.699,44.284 -19.514,-7.47 58.419,22.287 -54.803,-20.901 146.327,55.352 -161.915,-61.335 74.14,28.307 -20.698,-7.865 131.637,49.523 -53.884,-20.13 8.373,3.141 -24.587,-9.236 -11.842,-4.464 -134.065,-51.193 33.051,12.734 134.777,51.159 -68.909,-26.002 0.167,0.06 m 5651.686,-23002.259 98.774,-100.829 146.891,88.988 -159.294,-148.418 207.652,10.119 -96.947,-81.577 129.372,-67.17 -139.235,-24.991 149.613,16.616 -89.156,-73.671 129.343,-43.196 -99.847,-32.796 127.821,-27.607 -94.59,-21.213 115.786,-66.281 -123.191,-153.109 121.734,42.738 -141.06,-110.892 198.132,-15.874 -43.146,-124.824 112.198,58.146 -84.126,-119.911 109.765,51.059 -63.544,-55.9 120.241,-25.536 -104.969,-81.521 138.314,51.039 -9.453,-121.169 -133.783,-42.947 167.112,-24.684 -102.665,-226.869 120.683,44.079 38.103,-164.967 225.21,-16.538 33.141,-227.633 91.449,28.32 -77.121,127.112 79.474,32.574 -11.982,-100.254 36.526,67.835 175.119,-81.421 -44.878,-89.91 140.444,27.432 148.804,-392.898 129.827,-81.561 -89.934,-189.465 133.347,145.083 176.798,-34.141 -5.492,-82.537 76.418,51.895 314.935,-169.813 341.64,-464.102 -350.038,-23.655 -186.837,158.948 -134.88,-24.262 191.29,-127.92 -279.487,41.888 92.158,-202.485 127.123,41.252 111.15,-110.261 -313.403,-27.153 97.81,-57.091 -116.318,-63.348 403.149,115.403 197.931,210.399 52.587,-124.762 42.498,103.747 87.242,-33.693 -131.348,-121.421 14.991,-125.797 -75.309,23.436 37.245,-83.41 -106.387,51.798 31.857,-87.846 -234.283,-92.761 -58.667,94.268 2.57,-76.735 -98.715,18.09 152.913,-51.516 -85.912,-71.177 -104.91,91.901 -96.157,-70.324 195.777,-92.191 -236.735,21.114 113.219,-46.456 -103.171,-54.396 134.219,49.157 93.431,-87.743 -125.376,-97.853 141.169,86.426 6.337,-74.209 178.529,17.963 -163.52,14.799 181.968,80.614 147.727,-94.623 -28.77,-97.647 -137.638,-25.03 31.295,107.71 -93.139,-92.961 -19.921,-143.474 232.873,47.623 27.076,-74.201 -181.421,-2.432 -6.863,-106.961 -151.269,-0.09 142.548,-34.651 -180.252,-56.888 259.267,54.754 -44.567,-148.915 -207.465,-18.546 129.495,-80.92 -150.366,20.268 -108.53,-106.414 290.131,-96.536 -66.15,-119.675 -194.801,-8.037 101.841,-74.363 -136.104,-42.142 -35.793,95.527 -34.914,-111.731 36.996,-485.637 -117.494,89.022 -47.056,-77.954 175.819,-147.862 -254.445,50.481 266.891,-151.412 -35.141,-208.986 -181.843,7.968 -9.556,126.732 -133.013,-7.067 -76.789,275.093 -48.552,-366.388 -160.299,188.675 32.099,-145.487 -344.561,79.547 50.81,-91.751 296.113,-31.715 113.687,-131.884 -204.811,2.348 -2.747,-92.659 -384.662,142.307 68.434,-107.798 283.863,-70.252 -436.224,-7.733 -29.848,180.973 -167.439,-126.204 -71.122,75.696 181.248,54.785 10.114,83.192 -221.191,-105.435 119.264,133.282 -98.741,-10.922 -1.375,117.806 -238.019,-201.135 4.565,216.535 -124.262,-107.662 -75.085,78.819 41.935,-167.452 -229.578,27.422 56.428,181.651 -59.07,-141.003 -94.57,-5.62 -89.103,175.223 -50.755,-66.072 -40.57,107.186 2.769,-95.781 -257.901,119.803 -19.987,71.398 166.698,26.409 -244.917,197.021 -171.276,-36.414 -350.551,104.617 99.789,237.57 207.766,33.521 -46.577,80.825 -178.018,-66.235 146.424,95.104 -314.463,-98.531 156.114,163.59 -147.653,22.556 22.18,100.258 113.085,88.082 3.772,-93.1 82.935,90.072 183.56,-44.865 146.742,96.665 203.033,472.352 -133.207,95.998 116.042,-25.284 -68.534,316.273 83.85,168.852 -126.767,-11.563 79.05,36.001 -85.903,105.793 104.109,-68.332 -181.825,120.363 169.759,95.414 96.653,-234.008 -16.967,172.649 153.149,14.211 -146.697,66.443 163.821,5.938 -134.707,68.225 109.575,-22.533 -81.992,41.009 123.203,41.934 -102.979,-15.238 103.221,203.604 -215.934,-149.107 -178.422,3.95 190.686,196.066 221.919,27.807 -143.968,216.453 128.243,22.533 -58.903,72.237 -67.824,-75.124 14.681,177.273 -170.57,-61.84 -159.333,71.56 313.746,-10.998 -90.565,77.373 113.352,88.624 -328.99,-119.652 129.847,84.928 -125.876,-40.116 -93.082,142.205 273.104,-101.245 -86.905,38.694 236.987,15.424 -442.11,64.652 273.36,58.971 -299.646,8.528 176.74,116.08 -165.027,31.517 123.001,53.085 -143.846,-20.285 50.86,61.16 -89.495,50.839 385.341,-191.446 67.515,44.661 -433.203,172.598 217.21,18.6 -200.968,63.476 66.667,117.697 185.088,-100.485 90.035,51.782 -290.373,66.344 77.779,9.939 -61.734,140.311 134.574,-38.709 -135.832,71.469 -7.407,142.723 209.616,-131.41 -19.11,-141.482 132.893,269.077 -151.56,-97.212 81.651,61.173 -221.887,49.584 221.204,39.767 -208.566,1.751 88.208,43.364 -101.673,60.749 142.389,22.199 -113.068,50.855 146.258,33.308 -133.245,-2.714 140.597,50.43 -65.453,122.282 107.565,-68.961 -115.355,151.663 138.542,80.361 -77.026,80.64 132.508,-18.035 -108.062,67.122 104.228,-41.957 -64.071,77.821 83.162,27.497 -102.485,18.823 148.787,16.225 -128.112,29.389 171.413,36.228 20.229,153.618 382.362,-87.821 -167.916,123.917 134.984,-68.579 -102.236,121.717 123.883,-50.786 -7.92,108.635 96.43,-88.032 -98.162,166.092 119.022,-114.447 -47.722,158.086 m -2972.368,-1105.971 -147.033,-611.583 107.751,158.287 24.524,-116.48 240.923,429.255 86.02,-334.972 34.798,183.047 73.768,-203.016 -92.134,-127.588 93.008,-10.672 -27.82,-135.881 -105.333,39.876 11.42,-128.669 -47.466,83.153 53.639,-272.135 -137.521,26.511 72.669,-173.514 132.105,61.34 -8.421,-190.628 128.362,53.683 22.311,155.598 92.244,-55.544 -100.017,102.539 224.546,-56.261 -206.598,123.435 132.192,299.965 121.085,-282.688 61.227,123.044 31.322,-162.204 101.67,70.616 -74.47,-119.012 156.261,45.608 -44.359,-99.021 110.311,12.802 -43.143,-124.484 -124.32,84.263 22.505,-86.191 -128.329,12.888 138.428,-117.777 -127.631,92.331 74.013,-78.59 -162.909,20.791 115.682,-43.4 -80.206,-53.715 89.859,33.963 -7.493,-140.897 -96.22,21.337 95.943,-71.078 -114.742,81.255 -1.126,-114.956 -72.357,89.895 65.438,-109.831 -79.962,53.848 52.364,-89.978 -70.578,34.868 24.248,-111.575 -97.354,-13.941 148.27,-4.151 -225.591,-187.966 158.649,64.591 8.186,-107.078 -104.529,15.809 125.834,-29.828 -74.338,-66.542 204.248,125.386 -12.827,-92.334 -262.727,-114.692 298.915,52.354 29.206,-65.71 -37.625,-115.204 -275.181,110.417 211.415,-99.561 -165.115,-7.395 246.27,-58.886 -67.329,-103.921 -155.383,43.416 129.378,-79.58 -279.546,152.109 114.178,-113.234 -91.774,2.173 219.58,-107.486 -241.216,38.971 225.968,-109.147 -57.393,-139.943 -209.357,98.751 142,-163 -220.211,88.453 117.234,-96.613 -56.447,-33.011 157.073,-46.113 -208.907,-32.547 207.989,-99.796 -134.96,-148.266 -131.909,36.051 61.391,126.312 -124.27,-93.4 -2.608,154.302 -12.946,-249.554 -206.039,89.726 219.369,-157.413 103.87,-263.404 -301.352,-56.773 12.98,124.019 -114.993,-81.778 44.029,125.996 -81.796,-106.321 -85.866,254.334 -19.101,-101.643 -107.243,15.133 26.096,150.291 -168.164,137.011 40.607,-68.571 -336.896,-193.467 -83.186,157.978 8.522,100.866 168.452,12.744 -69.195,138.18 288.016,224.09 -12.499,-156.6 50.14,229.266 18.347,-131.933 191.164,189.353 24.121,-146.35 112.366,-49.708 -62.487,278.69 97.447,-29.399 -78.574,73.008 92.351,34.464 -21.079,129.051 -189.865,83.831 164.806,-29.055 30.938,174.534 78.002,-12.006 -71.399,407.055 -164.609,87.05 82.902,68.183 -98.991,-56.553 -233.595,76.735 -9.545,225.95 -286.104,-57.877 -125.074,-137.842 -250.525,223.333 383.34,195.02 67.24,-138.579 21.28,199.633 87.257,-74.585 -51.767,240.397 132.586,133.338 -132.248,-3.806 11.754,103.732 557.472,568.983 0.05,-0.365 m 2410.58,-5304.645 -246.976,-1.218 -69.869,149.921 -54.97,-166.83 -111.979,15.935 1.152,101.95 -50.093,-112.001 -222.811,-9.76 61.5,59.271 -89.784,22.781 128.451,50.898 -191.515,24.702 230.35,66.48 -243.475,-44.001 -2.808,95.967 303.86,17.579 -194.38,-2.112 -80.154,35.537 170.513,9.423 49.695,36.573 -109.486,20.755 106.825,26.898 311.092,-73.25 -190.347,71.029 98.311,50.084 -374.107,-37.042 -52.337,206.812 12.757,-205.899 -90.416,-74.862 -146.263,308.972 -65.331,-29.664 148.545,77.325 -123.159,-5.245 -16.851,77.73 -45.575,-141.851 -115.726,-16.09 -165.983,93.847 131.924,1.003 -46.104,64.183 145.771,-68.32 -241.255,198.811 237.625,-34.715 -270.473,88.068 -51.89,-222.824 -77.494,176.236 -283.854,9.167 11.575,69.989 93.327,-62.871 -59.156,109.606 70.029,-52.186 -21.832,83.309 70.222,-54.479 -9.813,116.219 129.605,-42.92 7.92,84.389 62.463,-75.544 -16.02,109.563 63.548,-101.36 -49.829,193.099 216.705,14.086 122.841,-101.02 -168.424,-147.334 95.962,-106.07 94.167,166.262 154.634,-121.217 118.19,62.073 -6.636,-78.427 117.586,21.54 -47.431,-79.865 115.371,34.79 -121.179,-198.367 205.537,108.347 -112.761,-146.685 256.319,70.677 14.546,-97.857 102.643,88.13 106.109,-59.866 -66.985,-61.128 98.275,46.422 26.981,-90.154 29.478,61.716 362.737,-151.63 -276.228,-7.583 205.954,-42.579 -80.159,-77.867 127.865,65.582 188.514,-41.163 91.698,-66.162 -35.873,-126.669 -208.131,-12.276 123.134,-38.811 -313.022,-175.404 -3.362,-0.558 m 8613.81,7504.523 150.972,-214.422 -34.061,-67.087 -185.454,76.867 80.68,-89.16 -24.327,-305.851 -141.607,-83.507 -176.974,110.842 -3.256,6.042 -105.444,-177.136 -49.437,-11.418 -87.186,30.281 100.839,-77.662 -69.094,-89.106 -235.298,-38.413 -343.615,-290.862 -271.62,62.189 152.021,-124.558 -126.564,22.359 86.788,-105.985 -71.776,-324.812 -333.363,203.356 7.196,-396.631 -259.642,126.414 114.396,220.497 -107.562,35.582 171.206,175.341 -62.806,155.905 176.262,-73.031 92.605,435.411 -8.715,-181.778 28.082,-133.059 92.229,61.115 -71.465,19.266 123.001,313.924 75.862,41.962 -35.074,-65.014 246.134,-154.108 -13.218,169.64 140.268,87.17 24.359,-73.65 60.582,210.916 92.73,21.098 -207.677,148.213 -26.859,155.5 91.001,-85.773 72.92,93.227 -117.639,291.328 372.861,-6.481 102.345,-194.938 -17.936,224.995 -187.611,85.45 -85.554,424.721 318.58,-199.148 -40.573,-143.167 526.736,-302.429 0.752,-0.425 m -10533.592,2611.016 280.938,-231.413 35.246,144.639 -118.71,176.408 156.477,-100.823 -46.107,175.285 96.447,19.697 158.709,-260.266 -20.904,-93.008 -114.516,65.788 107.294,-181.146 -166.02,181.02 -60.037,-115.788 78.561,-50.18 -61.543,-66.087 212.038,-66.183 -251.059,11.905 190.343,-252.919 -199.334,-23.303 22.55,-95.197 -213.855,129.941 78.245,-144.987 -200.15,-0.15 165.248,-139.214 -145.613,-13.289 25.015,-68.216 -180.031,159.735 324.798,-428.343 -48.742,-93.812 111.973,17.463 -59.497,-91.98 -349.952,225.334 -147.235,365.079 -107.945,-2.636 34.958,146.49 -87.802,-74.06 -219.642,163.612 199.828,28.753 -272.095,137.418 23.336,111.385 187.063,-30.911 276.286,139.718 244.722,-92.759 -101.255,140.099 304.464,-11.757 -308.32,173.35 165.768,15.475 0.06,-0.167 m -2967.963,-9229.549 -138.953,101.646 229.094,251.357 310.563,40.695 -93.551,193.709 198.358,198.359 104.824,-121.083 -152.705,14.62 140.791,-123.774 4.213,86.882 160.601,2.716 -44.071,76.188 132.908,-92.724 54.017,-349.425 453.026,-325.626 74.857,-149.922 -86.65,-61.695 -418.284,255.252 308.776,-318.644 -29.322,-44.241 -119.598,128.475 11.279,-73.725 -93.116,21.119 -32.894,-59.37 153.63,-10.795 30.57,-125.628 -165.892,-47.089 232.797,-95.14 -341.041,-130.474 -226.421,43.387 -2.755,97.239 -90.304,1.248 114.223,182.763 -218.227,-148.108 -105.923,90.815 123.016,239.525 -31.226,203.898 -255.584,-349.936 -160.075,138.645 -30.73,258.652 -0.221,0.209 m 9292.851,4030.776 205.305,-194.671 72.438,-228.335 -80.979,-11.482 82.881,-39.117 -325.624,-211.721 41.878,-95.067 -72.957,88.35 -136.312,-74.614 8.483,133.936 -209.246,28.18 82.433,135.819 -145.343,-125.334 -24.978,147.46 -159.007,-72.098 6.324,272.381 -107.367,-226.29 -256.013,-70.591 136.412,146.881 -157.429,-75.222 68.818,137.982 -114.287,-15.907 61.927,67.853 -92.089,26.014 358.978,-56.477 -91.701,97.942 115.001,23.382 -273.727,94.489 387.833,69.678 -124.89,199.743 204.764,-84.74 356.889,80.973 181.723,-169.309 -0.138,-0.09 m 2785.159,2883.387 222.287,-221.2 -260.109,-488.616 79.93,-194.115 -213.727,-158.13 -144.909,135.545 26.973,-88.38 -90.242,-10.931 21.487,131.192 -90.255,-51.542 -55.823,197.212 114.315,-28.471 -3.827,147.351 -255.884,87.799 146.106,90.786 -52.266,149.325 236.674,-23.168 -90.299,250.559 191.805,-105.022 -222.165,222.917 110.586,-14.813 -69.447,129.629 137.666,-64.136 -68.775,115.693 104.257,-78.196 -17.842,101.605 243.319,-232.547 0.165,-0.346 m -9572.335,-6695.975 4.258,176.161 164.048,-14.319 -55.77,120.717 260.806,141.786 80.108,-71.016 17.548,152.945 235.052,-4.967 -38.988,-61.402 134.946,-66.691 -50.371,-139.03 -373.11,-83.714 -44.152,-144.637 -67.208,41.961 83.239,-145.748 -106.246,-13.44 106.382,-6.48 -19.555,-90.098 108.571,94.842 -56.791,-123.028 70.373,-17.297 -179.721,-49.437 124.54,-96.374 -109.052,-127.595 -134.162,178.691 133.022,67.239 -286.088,279.395 -1.679,1.536 m -831.847,-1090.83 172.878,21.927 -120.856,54.199 134.924,114.614 -250.359,-99.074 -29.312,139.073 283.394,95.08 81.079,137.396 240.784,-86.283 24.551,-80.995 -125.516,44.815 4.05,-71.757 264.925,-182.944 -168.011,0.841 -209.187,181.255 -52.379,-115.771 211.674,-287.078 -86.957,-21.573 -11.305,71.996 -117.721,-71.06 34.449,93.711 -138.921,-83.829 76.106,94.879 -181.535,-83.077 -37.294,133.365 0.539,0.29 m 1727.126,327.955 -12.277,150.976 -73.278,-26.575 -30.387,76.16 92.035,92.122 88.963,-96.841 -63.64,116.538 224.704,-130.66 -58.382,79.251 253.3,-38.389 43.63,-86.134 -87.243,-30.218 192.816,-158.677 -101.485,38.732 148.714,-343.944 -199.837,35.594 -22.888,91.569 -128.059,-52.58 -27.014,120.527 -27.62,-91.474 -67.567,41.551 44.28,84.803 -151.847,54.085 163.169,149.064 -199.5,-75.694 -0.587,0.214 m 6120.534,284.767 164.54,6.858 -401.638,-361.261 -9.725,-134.236 -329.193,-19.839 49.631,57.943 -223.738,-63.191 304.859,169.506 -284.102,-82.808 109.136,104.076 -136.754,-1.265 -24.33,-90.182 -27.238,143.952 412.63,155.075 -75.36,-182.115 102.2,60.222 -26.083,-78.882 102.155,16.819 -43.338,188.826 98.044,44.897 60.395,-141.352 -13.904,124.221 101.252,-17.042 -101.484,67.611 192.052,32.171 -0.01,0 m 1575.651,-1753.776 -162.259,-18.232 25.393,-45.642 -296.568,-137.226 -406.36,-348.342 -219.95,-4.125 262.886,170.47 73.272,170.692 391.232,285.046 145.894,-29.023 149.704,118.449 54.731,-59.435 -33.064,67.802 118.726,93.472 27.922,-114.032 103.701,116.79 8.116,-146.291 -144.534,-4.721 19.07,-64.094 -63.672,45.53 20.422,-66.594 -123.548,3.557 48.917,-33.913 -0.03,-0.138 m -14617.0985,17926.654 228.4435,-1.28 -352.7605,-294.029 32.984,-121.953 -269.377,-183.875 -543.951,-790.367 -272.867,-247.502 -654.59,-225.978 -112.37,165.025 -150.537,-51.716 193.425,110.49 335.221,-57.644 189.552,119.356 31.578,79.158 -118.187,-37.22 58.816,106.082 638.605,520.667 77.321,318.422 203.503,130.506 8.867,101.325 -179.506,72.979 655.797,287.539 0.03,0.01 m 851.4145,942.775 144.286,-74.526 514.424,254.86 102.594,-84.189 -315.5,-256.041 134.105,-18.582 -153.652,-49.83 -35.353,-134.086 -706.646,-360.343 -172.434,9.059 174.499,144.587 -53.74,105.968 89.678,190.975 -455.5365,-235.503 -79.694,41.091 125.6835,178.236 469.68,131.09 127.409,241.663 89.928,-84.282 0.269,-0.147 m 7522.421,-23107.336 178.495,-12.364 -138.288,9.423 -146.34,11.138 72.332,-5.655 496.124,-30.901 203.971,-8.719 -188.328,7.969 -205.142,10.93 433.885,-13.675 131.941,43.674 81.953,-5.298 -105.353,-10.225 186.636,-11.212 19.102,-16.823 -132.239,-8.617 -888.292,40.321 -0.457,0.03 m -3394.476,6828.804 276.863,-155.265 -33.616,-142.758 261.648,-52.536 -152.863,-203.595 -94.905,92.03 -28.641,-74.581 6.611,139.797 -128.129,50.764 -11.214,-157.045 -126.004,39.871 -186.715,413.789 72.314,44.29 117.281,-85.528 -61.399,46.055 87.688,45.138 1.081,-0.426 m -553.12,2693.18 153.511,-32.041 -18.713,-129.856 -136.754,-27.741 124.194,-127.144 -78.485,-375.377 -90.522,37.297 79.321,-200.653 -426.928,382.225 -199.027,54.416 170.889,64.547 -75.173,172.367 431.481,-116.708 -48.651,155.996 113.639,142.666 1.218,0 m 11204.513,-4854.344 -30.644,-238.134 -323.649,89.712 -201.214,-31.677 -184.69,-114.573 -16.304,93.894 42.169,99.908 75.98,-9.09 58.243,85.03 15.591,-73.243 251.341,191.154 110.954,-5.538 -33.665,-107.768 234.853,20.83 1.035,-0.505 m -14870.223,-858.28 5.982,31.447 -78.798,1.276 45.926,97.771 72.88,-44.359 -64.002,68.788 98.965,-25.227 104.319,-106.775 -77.464,2.179 83.481,-49.294 -159.823,57.741 134.716,-106.006 -50.317,-10.404 -115.681,82.74 -0.184,0.123 m 11839.388,1353.554 -161.104,19.302 26.346,85.174 -117.272,-44.072 133.361,86.973 -212.702,5.442 97.151,53.745 -48.583,55.658 138.241,30.527 57.745,-105.326 50.071,100.116 171.546,-79.888 -134.339,-207.66 -0.461,0.01 m -6931.544,967.241 95.009,85.586 126.493,-31.227 282.654,-259.478 -97.843,23.56 -41.538,-96.235 -127.499,142.009 80.612,-171.503 -134.775,137.846 -120.285,-57.495 137.559,132.03 -133.61,2.545 -68.653,90.723 1.876,1.639 m -1445.335,-693.007 550.344,120.289 161.443,-205.045 -101.53,-54.413 133.729,-180.358 -95.127,-158.257 -171.178,105.413 -552.608,24.834 5.955,69.184 -241.615,198.683 156.85,115.293 152.914,-36.089 0.823,0.466 m -6291.6025,2679.722 74.959,67.871 -131.298,55.331 -24.142,290.778 403.012,-608.33 77.166,-455.179 -80.934,103.231 44.585,54.677 -122.902,14.453 14.936,101.21 -255.271,375.934 -0.111,0.02 m 1459.742,-1741.995 -81.474,87.827 146.941,-73.087 30.26,-98.209 24.313,54.058 243.967,-279.127 -195.81,116.593 -1.376,52.005 -84.323,7.757 -82.713,132.097 0.215,0.09 m -540.27,337.064 54.563,11.95 34.646,-99.782 236.325,-48.887 -149.946,-16.248 112.18,-24.438 50.088,-130.158 -283.014,208.993 -238.713,318.062 182.859,-218.865 1.012,-0.627 m 11020.7685,-5093.574 -458.257,10.495 107.516,109.425 -89.762,-90.179 -149.262,67.695 321.45,81.624 59.03,-80.327 135.71,83.725 144.268,-81.299 -70.698,-100.95 0.01,-0.209 m -4409.902,13973.832 -64.205,-125.761 -150.552,162.275 -77.935,-14.201 199.486,-139.213 59.786,-225.799 -311.825,245.388 12.928,162.377 332.007,-63.789 0.31,-1.277 m 430.783,-10534.329 -69.527,-83.714 -452.79,-36.254 101.697,59.391 -87.287,83.279 312.979,-0.713 -143.774,86.811 328.696,-25.726 10.346,-83.184 -0.34,0.11 m -270.384,2458.919 72.307,-196.194 144.248,-157.793 315.713,-152.786 -81.163,-92.589 -305.515,23.566 -446.505,302.305 147.7,194.654 152.983,78.678 0.232,0.159 m 12211.85,3232.032 -37.068,-210.022 -151.802,-94.873 74.005,134.051 -100.023,-50.919 -53.43,136.664 363.353,186.567 -94.853,-101.63 -0.182,0.162 m -5735.89,-7923.737 -165.723,-110.891 -181.969,93.742 1.675,59.961 92.116,1.989 -67.508,33.381 321.615,60.387 0.08,-138.393 -0.283,-0.176 m -5624.174,2891.451 203.533,-185.594 -0.163,-241.599 -139.595,85.706 27.907,67.962 -160.875,22.229 82.788,43.017 -13.707,208.738 0.112,-0.459 m -6388.7415,57.285 134.1775,-147.511 -73.423,114.276 68.641,-17.393 71.445,-169.35 -229.5445,146.757 100.8245,-42.178 -71.8815,115.115 -0.239,0.284 m 5060.9395,1116.897 198.278,-7.879 34.074,-102.788 114.326,111.359 383.343,-137.326 -249.539,-240.997 -481.812,377.057 1.33,0.574 M 23032.801,20489 l -206.67,-44.184 -23.297,93.728 182.358,97.529 4.14,-87.143 108.811,46.487 -65.136,-106.66 -0.206,0.243 m -9954.347,5932.651 128.589,13.425 -39.214,51.49 135.482,-118.892 -91.956,74.047 89.374,-159.025 -222.794,139.067 0.519,-0.112 m 5179.515,-2518.017 -95.857,-195.099 -155.283,-28.377 -45.293,164.37 153.933,31.203 -76.143,77.137 218.064,-48.728 0.579,-0.506 m 14642.921,5101.511 148.991,-210.296 -34.497,-103.001 -18.581,126.625 -326.918,202.095 63.268,99.349 167.585,-114.967 0.152,0.195 m -27333.8595,11376.856 54.043,-14.771 -115.567,-312.458 -45.794,5.229 103.36,227.563 -85.333,0.1 89.125,94.41 0.166,-0.07 m 6682.3535,8930.505 69.719,27.885 -169.918,-91.171 -99.123,-42.619 27.724,19.294 74.049,43.146 97.237,43.31 0.312,0.155 m -2788.4105,-28029.983 -99.144,21.243 -13.69,48.56 63.918,-21.67 -95.807,37.317 25.328,39.594 119.395,-125.044 m 12494.5905,-3751.761 -354.843,-73.723 -42.117,113.814 134.287,-7.557 -113.545,67.124 377.046,-99.641 -0.828,-0.02 m -130.766,371.737 -186.247,-65.086 -124.108,26.296 -42.329,122.436 375.619,-2.127 -23.112,-81.433 0.177,-0.09 m -12086.9865,17184.832 38.351,65.022 94.356,-183.538 -94.735,-167.222 69.252,159.497 -107.264,125.256 0.04,0.985 m 20296.8315,-4930.111 144.041,-220.996 -158.554,-353.63 -207.081,-125.96 -114.919,206.979 336.879,494.267 -0.366,-0.66 m -15333.661,199.377 224.329,-88.44 -394.177,-112.782 46.527,-178.38 -117.562,110.487 240.549,268.069 0.334,1.046 m -5447.2575,7084.338 199.936,73.087 -142.24,-220.125 -345.054,-153.812 112.072,211.73 175.209,88.964 0.08,0.156 M 11010.228,17645.2 l 21.955,46.969 77.963,-69.977 -93.219,36.303 56.863,-87.477 -63.405,73.911 -0.157,0.271 m 22729.458,10187.429 13.328,-262.648 -65.692,-40.474 -29.238,-208.823 -65.533,500.479 147.009,11.731 0.126,-0.265 m -20524.937,13244.298 32.093,-187.059 -213.142,-17.171 52.191,127.764 -141.029,31.599 269.92,44.195 -0.03,0.672 m -3665.7355,-5432.191 -63.319,-36.14 55.486,-65.158 -70.627,17.352 35.369,126.749 43.475,-42.605 -0.384,-0.198 m 6623.9525,-13374.196 6.763,87.413 263.646,92.368 25.96,-202.721 -195.225,-165.722 -100.827,188.493 -0.317,0.169 m 9921.44,-2176.048 -108.397,-128.774 -119.121,41.908 119.57,109.324 107.921,-22.094 0.03,-0.364 m -10946.084,9384.423 52.893,-63.054 -132.223,-146.245 -317.494,-160.815 396.43,370.289 0.394,-0.175 m 17224.677,-1670.114 28.677,-51.739 -89.545,-49.791 -28.037,102.402 88.791,-0.901 0.114,0.03 m -22431.2415,7701.577 -28.915,112.681 47.47,-145.804 -108.766,-191.168 90.461,224.139 -0.25,0.152 m 3320.6205,-18270.695 -9.278,61.876 379.33,-204.761 -88.797,-5.201 -281.617,148.084 0.362,0 m -3477.8275,3629.442 -150.662,103.342 2.391,53.04 118.898,-43.217 30.328,-114.297 -0.955,1.132 m 2275.2875,17636.944 120.122,-85.59 -442.644,-133.417 0.673,129.598 321.719,89.493 0.13,-0.08 m 15307.69,-12796.644 77.958,101.156 100.999,-52.555 -125.265,-123.459 -53.48,74.366 -0.212,0.492 m 4989.039,2612.407 -140.213,-125.175 -159.035,24.426 -21.545,107.726 320.528,-6.623 0.265,-0.354 m -7590.464,-1992.276 38.25,61.484 39.2,-86.794 -55.89,-168.239 -21.334,193.464 -0.226,0.09 m 249.254,-3817.401 -25.612,-201.694 11.353,104.379 -100.952,-67.119 114.734,164.329 0.477,0.105 m -15548.9095,12987.472 84.738,-76.976 -61.871,-200.022 -104.621,145.684 81.57,131.23 0.184,0.08 m 11593.4805,-12426.354 197.328,48.8 -152.02,-157.379 -123.006,20.759 77.248,87.895 0.45,-0.08 M 8658.4885,22024.36 l 36.682,6.28 -101.05,95.153 217.829,-196.596 -153.465,95.014 0,0.149 m -517.688,13675.012 109.427,30.544 -10.184,-107.752 -61.336,-54.082 -39.336,130.424 1.429,0.866 m 16306.6515,-17227.776 -98.666,-14.621 48.991,66.769 109.963,4.595 -59.956,-56.186 -0.332,-0.557 m -9655.004,2640.302 183.859,-61.94 -43.749,-123.527 -81.566,10.56 -59.963,174.032 1.419,0.875 m 4193.261,-4532.009 -164.385,-19.67 -136.203,68.333 374.258,25.295 -73.585,-73.853 -0.08,-0.105 m 307.361,-249.006 -42.673,33.945 134.687,52.077 198.733,-65.677 -290.299,-20.36 -0.448,0.01 m 9769.431,14348.97 29.922,-162.437 -80.415,-40.834 -103.295,194.568 153.778,8.88 0.01,-0.177 m 681.186,-1254.372 -17.816,-235.651 -163.947,-225.273 -30.005,273.251 211.755,187.661 0.01,0.01 m -15728.818,-7277.783 34.812,240.401 190.41,3.402 82.624,-361.493 -308.201,117.486 0.355,0.204 m -4119.9835,-1330.382 199.0735,-105.494 77.661,-111.001 -373.9345,195.817 97.166,20.859 0.03,-0.181 m 21492.0705,9133.105 -154.438,-495.438 -418.657,472.952 94.834,98.714 478.016,-76.003 0.245,-0.225 m -19135.633,-12392.82 144.237,-48.548 72.021,-101.921 -220.788,110.065 4.383,40.456 0.147,-0.05 m -1324.184,323.596 -76.007,81.816 144.287,-82.949 10.98,-86.242 -79.082,87.205 -0.178,0.17 m 4757.873,5752.669 -102.591,-133.066 -205.929,228.333 175.687,47.911 130.937,-141.979 1.896,-1.199 m -1720.82,827.087 -174.323,33.104 -39.159,94.036 344.711,-71.079 -130.907,-56.154 -0.322,0.09 m -768.339,14949.838 129.222,-40.322 -73.571,-97.178 -101.187,32.553 45.503,105.174 0.03,-0.227 m 2829.667,-19195.838 -64.256,-127.592 -118.401,42.203 14.816,109.783 167.183,-24.807 0.658,0.413 m 5896.322,-2323.288 -82.721,1.323 71.337,86.108 78.179,-40.806 -66.602,-46.285 -0.193,-0.34 m -5489.09,2855.202 169.186,-42.732 -2.034,-176.908 -192.518,132.487 24.016,86.482 1.35,0.671 m 20727.262,15685.662 3.746,-48.015 -20.564,125.418 8.252,9.316 8.538,-86.516 0.03,-0.203 m -11449.924,-17192.552 -71.9,-41.533 -113.478,88.964 125.207,27.145 60.171,-74.576 m 2077.81,4563.77 -17.383,55.946 88.111,5.311 11.087,-82.299 -81.815,21.042 m -15512.867,-6140.67 81.033,-42.364 -1.243,-54.787 -72.373,34.935 -7.417,62.216 m 12833.37,8980.683 -0.855,105.825 77.452,-74.335 -76.338,-31.584 -0.259,0.09 m -9040.777,-6588.241 137.267,123.089 49.249,-87.881 -186.684,-35.925 0.168,0.717 m 5028.252,2839.987 -168.207,-59.963 -82.018,77.547 249.999,-17.547 0.226,-0.04 m 14457.611,2692.765 -41.017,-97.784 84.117,262.16 -42.974,-163.623 -0.126,-0.753 m 1085.389,5509.162 24.929,-72.43 -51.59,11.83 26.444,61.392 0.217,-0.792 m -6562.503,-3166.176 -65.984,-12.674 135.593,43.991 -69.478,-31.275 -0.131,-0.04 m -25526.1185,1296.437 -13.211,98.137 61.054,-111.897 -47.725,13.555 -0.118,0.205 m 20456.0895,-2772.797 -138.089,-50.95 173.843,122.035 -35.586,-71.018 -0.168,-0.07 m 2761.51,-1697.328 138.6,217.847 -188.357,-328.965 49.718,110.777 0.04,0.341 m -2818.658,-2300.417 -94.761,-95.061 28.576,112.252 65.872,-17.25 0.313,0.06 m -2601.588,-1651.627 123.7,16.983 -232.529,-67.135 108.63,50.018 0.199,0.134 m 9510.98,8040.128 72.439,-45.639 -93.365,-57.368 20.67,100.905 0.256,2.102 m -19246.496,20627.366 -52.48,-22.979 -56.472,-23.099 108.78,46.007 0.172,0.07 m -2350.13,-13001.668 0.222,0.499 49.794,-68.967 -139.078,117.265 89.062,-48.797 m 713.607,-17270.537 86.577,0.951 -119.607,-36.793 32.643,35.953 0.387,-0.111 m 11657.392,186.639 -112.35,-151.951 -124.415,-9.689 236.76,161.815 0.01,-0.175 m -13422.3505,1862.46 -43.286,58.536 138.385,-116.013 -94.68,56.939 -0.419,0.538 m 18789.9905,2817 -27.119,-232.187 -116.206,132.477 142.176,99.786 1.149,-0.08 m -17224.27,-5273.149 30.861,65.945 71.529,-91.753 -101.947,25.62 -0.443,0.188 m 5067.335,-1901.179 -195.418,182.402 237.181,-75.051 -41.736,-107.43 -0.03,0.08 m 10010.049,18886.82 107.102,-214.056 -184.288,121.468 76.766,92.309 0.42,0.279 m -929.991,-13668.196 -68.21,3.354 92.604,143.532 -24.316,-146.733 -0.08,-0.153 m -8484.089,22168.016 107.864,-87.271 -230.695,5.34 122.306,81.878 0.525,0.05 m -515.76,-18495.742 69.392,-58.619 -102.509,-26.829 32.893,85.372 0.224,0.08 m 594.645,-9367.385 0.15,39.358 139.249,-33.042 -139.224,-6.375 -0.175,0.06 m -4584.631,14735.352 283.442,85.014 120.531,-73.122 -403.762,-12.037 -0.211,0.145 m 3740.553,-9952.406 67.483,192.306 183.924,-209.273 -250.645,16.981 -0.762,-0.01 m -5980.1335,-290.92 78.409,-64.111 -246.105,127.68 167.823,-63.718 -0.127,0.149 m 41.166,-123.618 -160.556,108.226 378.876,-247.818 -218.394,139.335 0.07,0.257 m 5241.6155,-5154.409 139.296,-30.222 -219.228,41.893 79.678,-11.587 0.254,-0.08 m 22130.529,13508.626 -27.972,-160.331 27.013,246.697 1.029,-86.021 -0.07,-0.345 m -10589.733,6378.731 -6.465,-172.47 -109.008,253.704 115.257,-81.176 0.216,-0.06 m -11872.126,-12466.175 -35.238,74.537 115.776,-130.924 -79.815,55.296 -0.723,1.091 m -214.746,663.792 67.729,58.836 -30.875,-173.052 -36.974,113.413 0.12,0.803 m -2119.508,3314.568 139.209,191.939 23.024,-169.886 -162.338,-22.174 0.105,0.121 m -4106.2065,5680.966 -0.12,-0.01 -58.761,-30.925 152.68,83.017 -93.799,-52.078 m 24854.1585,-4425.455 -50.449,-156.835 1.123,153.477 49.389,3.684 -0.06,-0.326 m -17836.388,-8184.463 126.389,-24.171 -181.732,-33.771 55.28,57.781 0.06,0.161 m 1178.734,-4944.241 16.325,0.642 112.062,-26.061 -127.087,25.179 -1.3,0.24 m 16604.851,24572.334 55.711,-2.646 41.954,-169.805 -97.689,172.024 0.02,0.427 m -11755.265,-17385.286 103.851,-34.492 -97.567,-84.939 -6.431,119.339 0.147,0.09 m 1280.981,-3304.525 101.449,-23.203 -80.423,-52.394 -21.577,75.986 0.551,-0.389 m -14549.3065,23389.195 49.095,-33.793 -76.752,-41.587 27.275,75.551 0.382,-0.171 m 2393.6145,-5454.93 52.887,-83.869 -187.937,20.596 134.808,63.43 0.242,-0.157 m 1992.595,3640.332 -106.591,-24.673 179.066,44.046 -70.837,-20.179 -1.638,0.806 m 9475.137,-23775.533 -26.395,-52.044 -91.642,18.025 117.293,33.765 0.744,0.254 m 4750.786,18402.433 -13.791,-72.251 -73.606,145.323 87.455,-72.816 -0.06,-0.256 M 14553.538,24695.47 l 92.756,-57.763 -97.319,-52.184 4.376,109.769 0.187,0.178 m 9883.65,15334.817 83.897,-14.796 -99.21,-79.532 15.873,93.626 -0.56,0.702 m -5211.603,-19368.463 95.254,140.473 7.55,-106.199 -100.72,-35.864 -2.084,1.59 m -8936.142,16924.724 -74.01,-40.88 110.166,114.991 -35.749,-73.898 -0.407,-0.213 m 12493.935,-17067.13 -89.19,-83.279 -10.769,72.921 99.466,10.358 0.493,0 m -7255.557,2521.716 89.099,-28.782 -133.004,-37.362 43.927,67.37 -0.02,-1.226 m -1442.848,1883.404 130.627,-31.123 37.41,-117.669 -167.746,147.853 -0.291,0.939 m -3048.492,14916.192 0.08,0.132 65.79,73.082 -101.238,-135.275 35.363,62.061 m 15152.133,-4156.899 -89.129,-27.66 -21.054,87.994 110.023,-60.031 0.16,-0.303 m -6261.536,-20744.93 62.476,10.985 76.577,-9.716 -139.21,-1.285 0.157,0.02 m -5368.792,1814.571 -7.28,4.216 -58.975,44.889 139.989,-88.484 -73.734,39.379 m 1450.488,3725.696 72.866,-85.814 -146.061,136.782 73.825,-50.43 -0.63,-0.538 m 6513.315,-1538.982 -160.051,-67.006 43.009,74.919 118.277,-7.068 -1.235,-0.845 m -10007.783,-2458.734 -91.305,40.854 170.634,-74.543 -78.57,33.293 -0.759,0.396 m 3960.053,4357.722 -124.77,-59.323 67.091,125.557 57.397,-65.462 0.282,-0.772 m -661.271,2848.739 -94.389,-43.15 92.912,117.563 1.918,-73.706 -0.441,-0.707 m 16800.265,17094.517 12.99,44.197 51.693,-101.888 -64.683,57.497 0,0.194 M 21074.189,22584.48 l 160.491,-16.673 -105.296,-45.527 -55.075,61.942 -0.12,0.258 m -4482.872,-1574.413 -47.432,-46.619 -49.657,96.763 97.225,-49.223 -0.136,-0.921 m 11447.689,4663.895 -66.316,-65.615 -6.687,94.994 73.003,-29.379 m -12225.804,-10107.156 -122.614,73.028 145.519,-44.724 -22.905,-28.304 m 5023.071,8086.087 242.708,-85.775 -74.983,-107.801 -167.725,193.576 m 185.519,-693.02 207.898,10.274 -81.423,-62.631 -126.475,52.357 m -8918.104,-6240.385 -33.107,28.131 93.118,-50.494 -60.011,22.363 m 15793.893,7908.315 -137.267,-277.989 8.131,167.506 129.136,110.483 m -19005.0255,-2861.008 -107.082,121.149 177.634,-185.496 -70.552,64.347 m 350.606,14241.476 51.704,63.518 -51.516,-64.233 -0.188,0.715 m 15635.9425,-13659.543 -36.751,-102.693 36.453,102.273 0.298,0.42 m -10933.701,-315.462 -61.001,70.09 61.411,-70.106 -0.41,0.02 m 11215.832,4887.046 23.568,-92.681 -24.3,91.305 0.732,1.376 m -20624.1455,2004.162 -38.212,195.086 38.59,-195.149 -0.378,0.06 m 18500.8355,4341.297 176.619,-1.523 -176.657,1.273 0.04,0.25 m 7436.057,-5197.666 62.592,-59.704 -62.894,59.288 0.302,0.416 m -20603.4045,7857.398 67.562,85.117 -67.315,-85.26 -0.247,0.143 m 2188.2095,-19180.944 -59.727,48.981 60.137,-49.062 -0.41,0.08 m 12057.638,8418.003 80.699,57.558 -80.496,-57.651 -0.203,0.09 m 810.261,-3792.799 -64.874,23.32 64.779,-23.169 0.1,-0.151 m -2522.549,-2527.41 -170.885,-57.222 170.689,57.384 0.196,-0.162 m -18201.4285,10110.883 0.03,0.02 48.948,-41.896 -48.983,41.874 m 18295.1405,-9520.346 -10.674,-127.705 10.651,127.877 0.02,-0.172 m -6193.423,24708.533 4.403,69.786 -4.401,-70.775 0,0.989 m -479.856,-18081.605 55.584,56.979 -55.388,-57.441 -0.196,0.462 m 422.873,-859.704 19.074,107.308 -18.983,-107.537 -0.09,0.229 m 8631.683,-3288.439 -32.958,71.716 33.109,-71.678 -0.151,-0.04 m -14104.657,-3758.337 -74.095,44.251 74.274,-44.293 -0.179,0.04 m 5282.252,7340.356 83.736,17.238 -83.452,-17.908 -0.284,0.67 m 13097.532,4909.739 -0.442,0.264 64.121,-22.206 -63.679,21.942 m -20664.3875,-8143.571 -0.224,-0.08 -52.91,12.983 53.134,-12.905 m 6887.7135,3695.369 5.717,-90.125 -5.948,89.993 0.231,0.132 m 9623.149,-3455.659 -0.114,0.105 -6.215,86.339 6.329,-86.444 m -17309.8475,17116.692 0.04,0.464 23.176,77.552 -23.215,-78.016 m 7026.2355,-14941.193 5.374,-86.312 -5.68,86.497 0.306,-0.185 m 10421.034,1138.988 59.442,61.116 -59.855,-61.778 0.413,0.662 m -9238.348,1495.246 77.266,35.396 -77.102,-35.494 -0.164,0.1 m 3399.985,-1604.192 108.365,75.172 -108.35,-75.396 -0.01,0.224 m -6000.317,14380.539 28.487,-95.487 -29.891,94.847 1.404,0.64 M 30609.6,28081.494 l 0.526,-0.519 -48.647,43.7 48.121,-43.181 m 5650.893,-1613.81 -59.58,-146.471 58.859,145.03 0.721,1.441 m -13875.228,-8901.017 -73.375,-3.088 73.548,3.202 -0.173,-0.114 m 5139.395,6033.996 -15.071,-104.494 13.645,103.316 1.426,1.178 m -5135.501,-4505.3 0.08,0.629 39.199,-88.294 -39.284,87.665 m -147.531,-69.518 64.466,46.532 -64.495,-46.68 0.03,0.148 m -3701.363,7419.585 82.071,-39.963 -82.048,39.711 -0.02,0.252 m 6567.886,-1199.866 20.189,64.403 -19.791,-64.61 -0.398,0.207 m -7920.612,24171.406 37.803,-41.765 -37.82,41.668 0.02,0.1 M 7058.2125,36632.555 l -0.295,-0.199 -58.896,-2.277 59.191,2.476 m -1391.567,3739.85 76.348,46.582 -76.178,-46.653 -0.17,0.07 m 18755.2015,-22233.991 -0.104,-0.141 -88.249,-70.714 88.353,70.855 m -951.725,-166.561 -90.734,10.042 90.555,-9.586 0.179,-0.456 m -15485.1735,5073.688 -50.163,110.379 50.574,-110.671 -0.411,0.292 m 23626.1485,5543.014 -108.841,-55.889 108.462,55.746 0.379,0.143 m -24381.2335,6859.502 67.528,-5.122 -67.325,4.979 -0.203,0.143 m 24590.6095,-6723.411 -27.595,-96.684 27.457,96.482 0.138,0.202 m -4708.884,-4867.273 65.057,22.544 -65.128,-22.872 0.07,0.328 m -2915.733,1381.894 -101.539,-57.519 101.543,57.526 0,0 m 999.494,1566.264 0.07,-0.151 20.364,-61.644 -20.432,61.795 m -9715.263,-3598.508 157.569,-43.471 -157.202,42.866 -0.367,0.605 m 10745.782,-4639.511 -75.454,-42.741 74.852,43.141 0.602,-0.4 m -19425.5895,17613.293 52.515,-52.582 -52.289,51.678 -0.226,0.904 m -110.375,-4235.161 -0.373,0.209 63.72,-6.33 -63.347,6.121 m 4344.8275,-12696.079 -11.564,48.393 11.976,-48.235 -0.412,-0.158 m -1223.9025,1423.073 90.723,-37.876 -90.936,37.762 0.213,0.114 m 1560.3185,11150.682 75.749,-77.361 -75.935,77.125 0.186,0.236 m 1841.242,7727.278 51.25,96.763 -51.08,-98.396 -0.17,1.633 m -3007.995,-3226.31 75.365,67.706 -75.185,-68.427 -0.18,0.721 m 2875.58,-19341.191 0.517,-0.36 -117.156,57.681 116.639,-57.321 m 11143.655,8365.355 76.425,45.517 -76.421,-45.519 0,0 m -3059.02,-3253.806 0.157,0.07 -125.803,-162.912 125.646,162.84 m 3028.833,17510.254 122.934,-4.881 -122.986,4.172 0.05,0.709 m 3308.68,-13728.125 -80.066,-21.911 79.873,22.06 0.193,-0.149 m -14557.389,850.666 111.124,21.932 -110.515,-22.078 -0.609,0.146 m -3437.8855,-5537.409 -0.235,0.299 91.549,-80.073 -91.314,79.774 m 26236.4785,5524.399 -32.023,-22.155 32.371,22.7 -0.348,-0.545 m -30857.0185,180.134 -3.483,-71 3.357,70.375 0.126,0.625 m 20074.8995,-5241.546 -47.819,-81.237 47.575,81.545 0.244,-0.308 m 4954.74,6228.41 82.275,90.116 -82.171,-90.209 -0.104,0.09 m -4561.473,-4734.332 -25.674,-62.815 24.904,62.113 0.77,0.702 m 6538.266,4831.325 54.372,-32.253 -54.625,32.156 0.253,0.1 m 567.8,311.269 -66.216,-1.512 66.923,2.495 -0.707,-0.983 m -11275.886,-5859.181 -62.065,-67.311 62.027,67.44 0.04,-0.129 m -14918.1665,9535.978 109.627,-21.59 -109.531,21.373 -0.1,0.217 m 6014.3185,17363.934 63.038,27.721 -63.145,-27.768 0.107,0.05 m -1721.775,-30514.395 14.844,29.629 -14.832,-29.729 -0.01,0.1 m 21389.03,10072.789 72.717,-11.529 -72.853,11.327 0.136,0.202 m -22703.5005,-7498.37 -0.09,0.04 73.839,-34.75 -73.753,34.705 m 4076.0705,18470.99 0.883,0.297 -51.149,-102.204 50.266,101.907 m -7594.3245,-7086.264 69.823,-98.761 -69.463,97.885 -0.36,0.876 m 16883.0875,-9671.754 42.334,-115.332 -43.452,115.764 1.118,-0.432 m -9245.619,17702.333 -2.397,-0.562 -81.395,7.354 83.792,-6.792 m 3014.109,3310.256 -27.007,57.358 28.313,-57.207 -1.306,-0.151 m -6298.892,-7901.218 -50.539,-238.844 50.463,238.677 0.08,0.167 m 26559.891,-5760.956 -29.02,-3.647 29.06,4.006 -0.04,-0.359 m -32647.5075,-56.4 -2.258,107.677 2.349,-107.525 -0.09,-0.152 m 28504.2085,-2344.747 -78.96,-109.211 78.376,109.021 0.584,0.19 M 14805.17,15679.56 l -141.966,32.538 142.26,-32.516 -0.294,-0.02 m 9934.862,10779.657 63.291,-39.648 -63.409,39.411 0.118,0.237 m -12447.642,4741.09 111.162,20.07 -111.325,-20.146 0.163,0.08 m 4138.777,-8129.259 86.533,-26.425 -86.561,26.355 0.03,0.07 m -7261.3945,12853.115 89.974,81.572 -89.907,-81.796 -0.07,0.224 M 25522.247,23927.82 l 37.428,-65.622 -37.77,65.238 0.342,0.384 m -8885.733,20358.571 -144.929,7.393 145.196,-7.365 -0.267,-0.03 m 12212.815,-13367.011 -48.662,72.563 48.809,-72.647 -0.147,0.08 m -2598.401,-12348.918 -0.234,-0.38 13.98,50.149 -13.746,-49.769 m -15470.212,211.649 46.962,-46.338 -46.956,46.33 0,0.01 m 14874.891,8473.379 12.319,-127.369 -12.689,126.684 0.37,0.685 m -180.404,8380.1 61.178,85.977 -60.923,-86.438 -0.255,0.461 m 9893.891,-6304.928 35.627,-22.517 -36.169,21.542 0.542,0.975 m 586.289,-2771.423 -8.579,-67.693 8.266,67.175 0.313,0.518 m -25318.311,-8316.962 41.001,10.847 -40.633,-10.936 -0.368,0.09 m -2663.1655,4492.28 -56.927,78.752 56.979,-78.543 -0.05,-0.209 m 3638.0075,-5682.202 0.06,-0.109 -139.995,94.583 139.936,-94.474 m -532.96,15394.981 -106.793,151.54 107.738,-151.106 -0.945,-0.434 m 12847.284,7095.626 99.86,-50.52 -99.899,50.041 0.04,0.479 M 14943.14,25025.15 l 0.474,0.16 -68.74,-43.301 68.266,43.141 m 1187.606,19227.697 120.47,16.273 -120.35,-16.365 -0.12,0.09 m 21075.742,-8114.751 -10.111,100.318 10.179,-100.916 -0.07,0.598 m -29390.7865,-12817.56 -50.126,55.693 50.53,-56.002 -0.404,0.309 m 10326.6065,21789.66 12.054,-61.844 -12.296,62.017 0.242,-0.173 m -5110.323,-4597.141 53.763,-50.077 -53.762,49.789 0,0.288 m -5798.6655,-8262.412 45.186,52.125 -44.865,-52.17 -0.321,0.05 m 18363.8275,-8364.986 -0.158,0.116 -38.231,85.805 38.389,-85.921 m -16252.8925,-2578.734 -65.171,48.357 65.372,-48.459 -0.201,0.102 m 6540.7225,-1231.576 99.875,-51.702 -99.983,50.82 0.108,0.882 m 15513.393,10157.427 58.504,7.519 -58.75,-7.941 0.246,0.422 m -13096.677,18669.929 82.467,2.503 -82.522,-3.335 0.06,0.832 m 4338.793,-29721.189 -75.469,-18.736 75.497,19.08 -0.03,-0.344 m -6078.995,10440.132 79.008,-14.472 -78.871,13.708 -0.137,0.764 m -2163.417,-6013.85 -76.644,115.472 76.832,-115.262 -0.188,-0.21 m -4842.3885,-2419.379 80.883,-81.551 -81.535,81.871 0.652,-0.32 m 23284.9015,7053.085 0.139,0.193 12.469,-82.542 -12.608,82.349 m -166.691,-228.146 -0.638,0.544 -46.201,57.247 46.839,-57.791 m -14675.446,20971.64 65.178,-11.618 -65.203,11.509 0.03,0.109 m 87.072,-24837.731 -0.238,0.198 105.544,-17.44 -105.306,17.242 m 14632.351,4211.323 -0.08,0.122 -9.565,61.19 9.65,-61.312 m -9922.332,-8176.84 17.57,-70.067 -18.548,71.636 0.978,-1.569 m -11675.62,-2699.885 -11.049,85.651 11.202,-85.684 -0.153,0.03 m 8358.682,-1057.315 61.093,32.387 -60.97,-32.442 -0.123,0.06 m 13564.806,12087.336 -22.03,-83.004 21.749,82.602 0.281,0.402 m -14031.105,-1808.405 -90.685,-50.912 90.607,52.14 0.08,-1.228 m -6594.591,22686.83 72.916,31.36 -73.629,-31.671 0.713,0.311 m 3585.351,-5069.755 91.698,-61.035 -91.705,57.641 0,3.394 m -6336.1865,-9508.074 -188.764,-27.112 189.13,27.305 -0.366,-0.193 m 16134.2055,-7356.532 79.23,-47.451 -79.469,46.989 0.239,0.462 m 1958.648,-1843.805 -27.035,62.696 27.037,-62.686 0,-0.01 m -3112.966,14089.326 55.694,-71.213 -56.095,70.923 0.401,0.29 m -7803.127,-15354.857 62.127,-41.928 -62.396,42.086 0.269,-0.158 m -4664.782,14159.269 84.994,16.034 -84.903,-16.76 -0.09,0.726 m -6097.2295,-6395.309 126.698,-116.441 -126.594,116.213 -0.104,0.228 m 3544.234,-11064.353 -43.12,57.516 43.322,-57.424 -0.202,-0.09 m 10255.9085,-4428.707 3.088,62.314 -1.961,-62.71 -1.127,0.396 m 12726.898,11588.923 6.115,-95.919 -6.245,96.463 0.13,-0.544 m -12501.59,-13260.811 -38.836,4.154 39.138,-4.166 -0.302,0.01 m -14505.2625,25289.494 64.877,63.321 -64.883,-64.521 0,1.2 m 21052.8325,-12282.448 76.266,-48.047 -76.391,47.808 0.125,0.239 m -1674.249,-6287.795 -50.078,28.838 50.252,-28.849 -0.174,0.01 m -9146.054,-1043.559 -80.972,72.588 80.932,-71.044 0.04,-1.544 m 15583.88,4775.806 0.239,-0.102 -73.121,23.4 72.882,-23.298 m -8931.294,7696.094 -80.05,-18.908 80.759,19.604 -0.709,-0.696 m 1882.561,-14790.883 -40.297,-42.989 39.841,43.016 0.456,-0.03 m -1736.609,14748.616 82.557,-1.204 -83.35,-4.489 0.793,5.693 m -10897.944,-16084.804 -76.092,76.355 77.021,-76.794 -0.929,0.439 m -2013.4785,4036.838 -59.407,75.279 61.367,-76.183 -1.96,0.904 m -2483.245,14101.571 64.207,10.853 -64.444,-11.75 0.237,0.897 m 2767.4545,541.199 68.626,204.258 -68.294,-205.448 -0.332,1.19 m -1333.1485,-13561.389 -54.359,52.823 55.817,-53.698 -1.458,0.875 m 19529.4735,3559.277 -0.169,0.165 -17.422,73.972 17.591,-74.137 m -14473.971,14727.04 -49.377,-75.231 49.144,75.375 0.233,-0.144 m 2880.544,-25255.683 -45.55,8.331 45.615,-8.34 -0.07,0.01 m -938.991,5592.932 108.604,24.933 -108.97,-25.219 0.366,0.286 m -6766.5665,1004.168 -27.88,55.25 28.513,-55.587 -0.633,0.337 m 2291.1305,18172.99 43.342,80.352 -43.262,-81.041 -0.08,0.689 m -4968.4255,-7901.744 50.235,-27.358 -52.526,28.32 2.291,-0.962 m 4834.3935,-12849.151 64.801,2.08 -63.72,-2.354 -1.081,0.274 m 4777.584,2000.571 -79.443,-13.754 78.571,13.799 0.872,-0.04 m -7235.3915,923.071 0.05,0.126 87.954,-86.876 -87.999,86.75 m 2140.0005,10628.277 84.65,-50.596 -84.296,49.628 -0.354,0.968 m 11976.941,-13426.637 -18.503,41.547 18.565,-41.169 -0.06,-0.378 m -10772.702,-2427.819 -8.839,-22.131 8.61,22.274 0.229,-0.143 m 6245.319,28181.306 111.071,-9.22 -111.071,9.02 0,0.2 m 7283.726,-10665.94 84.328,4.243 -84.127,-4.306 -0.201,0.06 m 11623.267,2500.703 30.651,-134.723 -30.579,134.334 -0.07,0.389 m -32251.5575,-9677.125 -12.642,87.548 12.919,-87.898 -0.277,0.35 m 15047.3935,-10737.209 58.629,32.871 -58.737,-32.936 0.108,0.06 m -1529.496,7485.854 -2.456,-105.314 2.207,105.552 0.249,-0.238 m -4045.138,-1743.751 -23.473,67.177 24.345,-66.268 -0.872,-0.909 m 17813.879,5400.642 -27.704,53.918 27.819,-53.889 -0.115,-0.03 m -7175.816,-4995.592 12.708,71.175 -12.59,-71.268 -0.118,0.09 m -15635.2425,13595.512 -14.094,-107.546 13.671,109.203 0.423,-1.657 m 17980.9615,-6997.234 63.862,-4.505 -63.971,4.276 0.109,0.229 m 4216.726,-3879.16 -0.238,-0.07 -40.443,47.957 40.681,-47.885 m -17993.3,-9250.847 -51.929,27.039 52.042,-27.048 -0.113,0.01 m -6218.7235,16366.122 25.06,61.295 -24.798,-61.464 -0.262,0.169 m 9505.1115,-12049.645 90.467,-84.165 -90.42,83.821 -0.05,0.344 m -4470.093,18316.228 95.488,5.512 -95.411,-6 -0.08,0.488 m 10171.66,-18777.473 0.164,0.247 -16.703,-67.929 16.539,67.682 m -16661.7125,20679.499 78.639,11.217 -78.642,-11.402 0,0.185 M 37145.132,29541.01 l -1.749,-57.629 1.695,57.435 0.05,0.194 m -29315.2065,-6229.745 -26.068,60.499 26.186,-60.627 -0.118,0.128 m 20192.8395,2070.723 -86.834,-49.055 86.145,49.107 0.689,-0.05 m -3175.288,-3710.872 16.52,-124.519 -16.855,124.532 0.335,-0.01 m -9037.177,1799.892 -41.089,93.546 41.582,-92.399 -0.493,-1.147 m 8793.64,16003.216 36.873,56.915 -36.903,-57.144 0.03,0.229 m -16642.5905,3020.195 45.735,-7.118 -45.754,6.732 0.02,0.386 m -1124.707,-6496.732 0.09,-0.02 48.596,-58.33 -48.686,58.347 m 5974.9985,-19640.818 34.703,-23.287 -36.419,23.938 1.716,-0.651 m -3367.5735,18353.756 -0.183,-0.132 41.417,74.184 -41.234,-74.052 m 4938.4465,-12978.068 -0.13,0.124 -39.596,61.948 39.726,-62.072 m 718.706,906.706 -43.536,-67.861 43.193,68.075 0.343,-0.214 m 267.684,-1321.04 -99.616,-65.576 97.697,65.748 1.919,-0.172 m -9922.1505,18805.788 54.46,75.643 -54.471,-77.643 0.01,2 m 4275.115,-5346.865 60.843,43.401 -60.69,-43.462 -0.153,0.06 M 22345.547,18937.79 l -0.204,-0.776 -51.628,-51.064 51.832,51.84 m -14198.5375,3711.048 10.935,57.434 -10.746,-57.549 -0.189,0.115 m -3996.899,8228.252 16.093,-81.97 -16.35,81.598 0.257,0.372 m 12239.5275,-15715.367 -48.171,10.863 48.448,-10.871 -0.277,0.01 m -1399.996,14860.039 150.461,-78.228 -149.821,77.622 -0.64,0.606 m 4840.022,-4937.71 93.715,-33.466 -93.082,32.735 -0.633,0.731 m -2052.276,19623.576 25.223,-55.976 -25.224,55.38 0,0.596 m -1184.161,-14451.106 -0.115,-0.3 -50.975,50.527 51.09,-50.227 m -4587.771,965.145 71.483,9.334 -71.289,-9.818 -0.194,0.484 m -7631.0475,-647.257 15.22,60.263 -14.908,-60.88 -0.312,0.617 m 9334.4145,-14574.183 -134.635,48.357 134.482,-48.253 0.153,-0.104 m 16252.233,11967.517 64.51,31.442 -64.583,-32.045 0.07,0.603 m -13830.147,16399.439 49.497,-44.638 -50.149,44.258 0.652,0.38 m 9207.174,-17497.262 69.777,23.383 -71.499,-26.576 1.722,3.193 m 2030.002,2362.178 54.615,41.214 -54.614,-41.509 0,0.295 m 0.559,-5420.683 -129.549,-57.627 129.381,57.592 0.168,0.03 m -9096.335,-408.074 19.873,62.141 -19.583,-62.34 -0.29,0.199 m -5383.006,15525.28 60.964,58.96 -60.903,-59.436 -0.06,0.476 m 3913.597,-17238.139 0.216,0.544 48.091,-48.597 -48.307,48.053 m -2896.51,-4637.125 -38.619,38.998 38.744,-38.387 -0.125,-0.611 m -3459.805,20258.296 -83.023,-54.486 82.821,55.37 0.202,-0.884 m 23846.857,-8684.219 13.94,-53.873 -14.002,54.018 0.06,-0.145 m -1193.138,15051.114 -0.606,33.074 1.835,-36.486 -1.229,3.412 m -1916.91,-12440.645 -25.303,67.574 25.61,-67.292 -0.307,-0.282 m -12460.193,-4592.248 43.806,-57.873 -43.729,56.883 -0.08,0.99 m 8780.717,-815.338 62.986,0.467 -62.965,-0.814 -0.02,0.347 m -16663.738,-6320.892 -1.416,-0.912 -36.073,-22.365 37.489,23.277 m 10165.351,2181.613 -13.937,-62.359 13.81,62.605 0.127,-0.246 m 8697.173,7263.994 36.92,-60.489 -37.87,58.942 0.95,1.547 m -13571.926,15344.988 -42.804,53.417 43.19,-53.063 -0.386,-0.354 m -800.454,-19166.467 65.172,106.36 -65.266,-106.574 0.09,0.214 m 61.827,-4277.134 99.752,-67.737 -100.646,66.051 0.894,1.686 m 756.057,23373.945 69.444,3.104 -69.213,-3.383 -0.231,0.279 m -3021.343,-17885.555 -0.26,0.399 120.855,-58.267 -120.595,57.868 m 2596.148,-3246.85 -117.529,21.236 117.928,-19.606 -0.399,-1.63 m 510.922,-2517.259 -27.889,-66.246 27.245,67.509 0.644,-1.263 m -7248.0875,1055.76 -0.833,0.08 -12.692,57.938 13.525,-58.014 m 6656.6555,-1473.214 -55.465,-22.402 55.732,22.616 -0.267,-0.214 m -7311.4155,16318.127 71.777,55.485 -71.481,-56.618 -0.296,1.133 m 11531.2545,-20351.808 -97.041,-2.527 96.913,3.579 0.128,-1.052 m 7478.56,9421.459 51.352,49.617 -51.008,-49.555 -0.344,-0.06 m 4765.953,2139.995 -9.893,94.891 10.191,-94.496 -0.298,-0.395 m -4529.497,-1930.035 32.008,85.902 -31.632,-85.844 -0.376,-0.06 m -9421.944,-2651.15 -79.289,42.724 79.374,-42.596 -0.08,-0.128 m -553.606,-1510.181 -64.177,-38.367 64.023,39.119 0.154,-0.752 m 4761.286,11563.535 127.271,8.65 -127.341,-9.16 0.07,0.51 m -6659.544,-12348.615 -95.99,-34.35 94.382,34.387 1.608,-0.04 m -2117.114,1018.145 21.07,47.03 -19.922,-47.816 -1.148,0.786 m 10582.873,-3788.225 49.137,-35.517 -50.136,35.188 0.999,0.329 m 3011.569,8630.506 40.218,-58.011 -41.27,56.492 1.052,1.519 m 5335.37,2304.103 -45.639,-52.557 45.335,52.915 0.304,-0.358 m -16176.835,-7776.666 87.037,-65.971 -87.904,63.083 0.867,2.888 m -5837.304,15379.102 0.453,0.975 61.282,50.172 -61.735,-51.147 m 8947.357,-11291.174 91.183,138.891 -91.171,-139.381 -0.01,0.49 m -3778.387,-4520.82 -33.195,-41.511 32.718,41.167 0.477,0.344 m -2337.634,5632.713 -77.954,42.975 77.473,-41.848 0.481,-1.127 m 1063.756,-8615.158 19.815,28.347 -18.764,-28.262 -1.051,-0.09 m 8253.836,1293.168 -90.027,-40.156 90.038,40.327 -0.01,-0.171 m -4483.034,5221.168 90.686,5.081 -90.054,-5.222 -0.632,0.141 m -8927.4575,-2745.286 -58.978,1.795 58.763,-1.481 0.215,-0.314 m 6517.3355,1652.846 -43.21,77.319 43.579,-76.623 -0.369,-0.696 m 10129.355,1757.671 -0.114,-0.202 -49.022,-57.52 49.136,57.722 m -16659.9865,9601.338 -21.918,63.283 22.128,-63.327 -0.21,0.04 m 6733.6045,-13406.591 56.513,-43.444 -57.603,42.276 1.09,1.168 m 3081.566,-363.48 -58.353,-85.817 56.328,86.703 2.025,-0.886 m -886.669,2659.807 49.461,-46.605 -49.559,46.46 0.1,0.145 m 7031.52,1989.485 -105.579,-167.343 105.144,166.706 0.435,0.637 m -5621.978,-4880.913 -58.945,-55.221 58.944,55.24 0,-0.02 m -46.636,31.202 -46.23,-46.443 43.627,45.953 2.603,0.49" />
      </g>
      <g
         id="layer2"
         style="fill:#ff0000;display:inline" />
      <g
         id="layer3"
         style="fill:#ff0000;display:inline">
        <path
           id="polygon413"
           style="fill:#ff0000;fill-opacity:1;stroke:none"
           d="m 9671.6079,14118.148 -251.805,-153.792 163.6624,234.671 87.2682,-79.27 0.8744,-1.609 m 16205.9131,-6399.4798 -19.655,72.9937 88.756,18.6514 -67.745,-91.2091 -1.356,-0.436 m -13221.613,5777.2878 -116.005,30.302 23.921,96.655 93.294,-125.526 -1.21,-1.431 m -3644.2282,-652.301 -157.3037,4.39 155.9763,-3.955 1.3274,-0.435 m 26120.2242,8834.411 -6.215,-60.795 6.081,61.062 0.134,-0.267 m 73.594,208.922 -17.527,-8.428 17.568,8.519 -0.04,-0.09 M 9972.8076,7487.2692 l -66.3435,-39.4966 62.487,40.2948 3.8565,-0.7982 m 23733.6174,15666.4428 79.58,-107.651 -79.011,106.289 -0.569,1.362 M 9958.0854,7511.8263 l -104.6369,-49.1511 104.0195,49.0808 0.6174,0.07 m 15689.4296,213.0122 -69.132,-26.4463 67.778,26.4731 1.354,-0.027 m 9595.88,13575.998 0.126,-0.135 -8.519,-34.601 8.393,34.736 m -4995.692,-14713.0284 3.318,41.2094 -3.263,-41.0184 -0.06,-0.191 m -19184.857,8285.5894 -120.998,36.387 120.207,-34.827 0.791,-1.56 m 2378.779,14882.942 -22.346,-72.697 21.573,71.601 0.773,1.096 m -2066.172,-3203.484 -94.147,-17.18 96.225,17.791 -2.078,-0.611 m 3150.817,3233.816 91.009,50.883 -89.55,-50.243 -1.459,-0.64 m 20564.614,-7647.291 -1.424,52.405 1.579,-53.068 -0.155,0.663 m -4379.227,-13918.438 58.121,41.72 -57.258,-41.6146 -0.863,-0.1054 m -21992.0046,2568.223 -0.1736,0.07 -51.6777,55.294 51.8513,-55.364 m 508.3816,1948.389 -64.7792,3.644 63.486,-1.89 1.2932,-1.754 m 21187.55,-5961.5297 -34.565,-60.5038 33.706,60.3284 0.859,0.1754 m -17641.287,27595.9277 29.471,33.979 -28.242,-33.917 -1.229,-0.06 M 26154.5,7190.3498 l 60.573,45.705 -60.212,-45.682 -0.361,-0.023 m -6142.81,-6223.32068 -0.177,0.0215 -9.629,22.46643 9.806,-22.4879 m -237.898,-502.71381 -70.403,-8.07064 70.797,8.52202 -0.394,-0.45138" />
      </g>
    </g>
  </g>
</svg>
